M48
; DRILL file {KiCad (6.0.7)} date Fri Aug 19 11:16:44 2022
; FORMAT={-:-/ absolute / inch / decimal}
; #@! TF.CreationDate,2022-08-19T11:16:44-06:00
; #@! TF.GenerationSoftware,Kicad,Pcbnew,(6.0.7)
; #@! TF.FileFunction,Plated,1,2,PTH
FMAT,2
INCH
; #@! TA.AperFunction,Plated,PTH,ViaDrill
T1C0.0120
; #@! TA.AperFunction,Plated,PTH,ViaDrill
T2C0.0157
; #@! TA.AperFunction,Plated,PTH,ComponentDrill
T3C0.0394
; #@! TA.AperFunction,Plated,PTH,ComponentDrill
T4C0.0906
%
G90
G05
T1
X4.1095Y-3.9053
X4.1095Y-3.9928
X4.122Y-3.7303
X4.2095Y-4.1553
X4.297Y-4.1553
X4.3095Y-3.5428
X4.3845Y-3.9928
X4.3845Y-4.3053
X4.3845Y-4.3553
X4.3845Y-4.3928
X4.3845Y-4.4303
X4.397Y-3.9178
X4.4226Y-3.8678
X4.446Y-3.8413
X4.472Y-3.8928
X4.4845Y-4.3803
X4.572Y-4.3803
X4.6476Y-4.4953
X4.6576Y-4.1653
X4.672Y-3.8719
X4.6845Y-4.1053
X4.6912Y-3.9236
X4.697Y-3.6678
X4.697Y-3.7428
X4.722Y-4.1053
X4.972Y-4.0678
X4.9926Y-4.3803
X4.9926Y-4.4603
X5.0026Y-4.3303
X5.0095Y-4.2803
X5.122Y-4.0178
X5.122Y-4.1178
T2
X5.1226Y-4.4353
X5.3526Y-4.5503
T3
X4.822Y-3.6178
X4.822Y-3.7178
X4.822Y-3.8178
X4.822Y-3.9178
X4.822Y-4.0178
X4.822Y-4.1178
X4.822Y-4.2178
X4.822Y-4.3178
X4.822Y-4.4178
X4.822Y-4.5178
X4.822Y-4.6178
X4.822Y-4.7178
X5.422Y-3.6178
X5.422Y-3.7178
X5.422Y-3.8178
X5.422Y-3.9178
X5.422Y-4.0178
X5.422Y-4.1178
X5.422Y-4.2178
X5.422Y-4.3178
X5.422Y-4.4178
X5.422Y-4.5178
X5.422Y-4.6178
X5.422Y-4.7178
X5.5595Y-3.6178
X5.5595Y-3.7178
X5.5595Y-3.8178
X5.5595Y-3.9178
X5.5595Y-4.0178
X5.5595Y-4.1178
X5.5595Y-4.2178
X5.5595Y-4.3178
X5.5595Y-4.4178
X5.5595Y-4.5178
X5.5595Y-4.6178
X5.5595Y-4.7178
X6.1595Y-3.6178
X6.1595Y-3.7178
X6.1595Y-3.8178
X6.1595Y-3.9178
X6.1595Y-4.0178
X6.1595Y-4.1178
X6.1595Y-4.2178
X6.1595Y-4.3178
X6.1595Y-4.4178
X6.1595Y-4.5178
X6.1595Y-4.6178
X6.1595Y-4.7178
X6.297Y-3.6178
X6.297Y-3.7178
X6.297Y-3.8178
X6.297Y-3.9178
X6.297Y-4.0178
X6.297Y-4.1178
X6.297Y-4.2178
X6.297Y-4.3178
X6.297Y-4.4178
X6.297Y-4.5178
X6.297Y-4.6178
X6.297Y-4.7178
X6.897Y-3.6178
X6.897Y-3.7178
X6.897Y-3.8178
X6.897Y-3.9178
X6.897Y-4.0178
X6.897Y-4.1178
X6.897Y-4.2178
X6.897Y-4.3178
X6.897Y-4.4178
X6.897Y-4.5178
X6.897Y-4.6178
X6.897Y-4.7178
X7.0345Y-3.6178
X7.0345Y-3.7178
X7.0345Y-3.8178
X7.0345Y-3.9178
X7.0345Y-4.0178
X7.0345Y-4.1178
X7.0345Y-4.2178
X7.0345Y-4.3178
X7.0345Y-4.4178
X7.0345Y-4.5178
X7.0345Y-4.6178
X7.0345Y-4.7178
X7.6345Y-3.6178
X7.6345Y-3.7178
X7.6345Y-3.8178
X7.6345Y-3.9178
X7.6345Y-4.0178
X7.6345Y-4.1178
X7.6345Y-4.2178
X7.6345Y-4.3178
X7.6345Y-4.4178
X7.6345Y-4.5178
X7.6345Y-4.6178
X7.6345Y-4.7178
T4
X3.9889Y-4.544
X4.5063Y-4.544
T0
M30
