%TF.GenerationSoftware,KiCad,Pcbnew,(6.0.7)*%
%TF.CreationDate,2022-08-19T11:16:44-06:00*%
%TF.ProjectId,ogx360,6f677833-3630-42e6-9b69-6361645f7063,rev?*%
%TF.SameCoordinates,Original*%
%TF.FileFunction,Legend,Top*%
%TF.FilePolarity,Positive*%
%FSLAX46Y46*%
G04 Gerber Fmt 4.6, Leading zero omitted, Abs format (unit mm)*
G04 Created by KiCad (PCBNEW (6.0.7)) date 2022-08-19 11:16:44*
%MOMM*%
%LPD*%
G01*
G04 APERTURE LIST*
G04 Aperture macros list*
%AMRoundRect*
0 Rectangle with rounded corners*
0 $1 Rounding radius*
0 $2 $3 $4 $5 $6 $7 $8 $9 X,Y pos of 4 corners*
0 Add a 4 corners polygon primitive as box body*
4,1,4,$2,$3,$4,$5,$6,$7,$8,$9,$2,$3,0*
0 Add four circle primitives for the rounded corners*
1,1,$1+$1,$2,$3*
1,1,$1+$1,$4,$5*
1,1,$1+$1,$6,$7*
1,1,$1+$1,$8,$9*
0 Add four rect primitives between the rounded corners*
20,1,$1+$1,$2,$3,$4,$5,0*
20,1,$1+$1,$4,$5,$6,$7,0*
20,1,$1+$1,$6,$7,$8,$9,0*
20,1,$1+$1,$8,$9,$2,$3,0*%
G04 Aperture macros list end*
%ADD10C,0.200000*%
%ADD11C,0.254000*%
%ADD12C,0.048768*%
%ADD13C,0.081280*%
%ADD14C,0.150000*%
%ADD15C,0.065024*%
%ADD16C,0.073842*%
%ADD17C,0.120000*%
%ADD18C,0.127000*%
%ADD19RoundRect,0.250000X-1.050000X-0.550000X1.050000X-0.550000X1.050000X0.550000X-1.050000X0.550000X0*%
%ADD20R,0.254000X1.143000*%
%ADD21R,1.143000X0.254000*%
%ADD22RoundRect,0.250000X-0.262500X-0.450000X0.262500X-0.450000X0.262500X0.450000X-0.262500X0.450000X0*%
%ADD23R,0.900000X1.200000*%
%ADD24C,1.981600*%
%ADD25RoundRect,0.250000X0.475000X-0.250000X0.475000X0.250000X-0.475000X0.250000X-0.475000X-0.250000X0*%
%ADD26R,1.250000X3.000000*%
%ADD27C,3.000000*%
%ADD28RoundRect,0.250000X0.250000X0.475000X-0.250000X0.475000X-0.250000X-0.475000X0.250000X-0.475000X0*%
%ADD29RoundRect,0.100000X-0.100000X0.712500X-0.100000X-0.712500X0.100000X-0.712500X0.100000X0.712500X0*%
%ADD30RoundRect,0.250000X-0.475000X0.250000X-0.475000X-0.250000X0.475000X-0.250000X0.475000X0.250000X0*%
%ADD31RoundRect,0.050800X-0.889000X-0.889000X0.889000X-0.889000X0.889000X0.889000X-0.889000X0.889000X0*%
%ADD32RoundRect,0.050800X-0.889000X-0.889500X0.889000X-0.889500X0.889000X0.889500X-0.889000X0.889500X0*%
%ADD33RoundRect,0.250000X-0.450000X0.262500X-0.450000X-0.262500X0.450000X-0.262500X0.450000X0.262500X0*%
%ADD34RoundRect,0.050800X1.000000X-2.750000X1.000000X2.750000X-1.000000X2.750000X-1.000000X-2.750000X0*%
%ADD35RoundRect,0.100000X-0.637500X-0.100000X0.637500X-0.100000X0.637500X0.100000X-0.637500X0.100000X0*%
%ADD36RoundRect,0.250000X-0.250000X-0.475000X0.250000X-0.475000X0.250000X0.475000X-0.250000X0.475000X0*%
%ADD37C,0.609600*%
%ADD38C,0.800000*%
G04 APERTURE END LIST*
D10*
X185661100Y-91573700D02*
X186931100Y-90938700D01*
X105016100Y-94113700D02*
X108826100Y-94113700D01*
X118986100Y-96018700D02*
X115176100Y-96018700D01*
X118986100Y-94113700D02*
X118986100Y-96018700D01*
X106921100Y-96336200D02*
X106921100Y-100146200D01*
X112953600Y-110941200D02*
X112953600Y-107131200D01*
X105968600Y-105226200D02*
X107873600Y-105226200D01*
X149466100Y-90938700D02*
X148196100Y-90303700D01*
X108826100Y-94113700D02*
X108826100Y-96018700D01*
X112953600Y-107131200D02*
X114858600Y-107131200D01*
X110413600Y-105226200D02*
X112318600Y-105226200D01*
X130416100Y-103003700D02*
X130416100Y-101098700D01*
X106921100Y-100463700D02*
X106921100Y-104273700D01*
X114858600Y-107131200D02*
X114858600Y-110941200D01*
X168516100Y-90938700D02*
X167246100Y-90303700D01*
X149466100Y-90303700D02*
X149466100Y-91573700D01*
X110096100Y-109036200D02*
X108191100Y-109036200D01*
X105016100Y-100146200D02*
X105016100Y-96336200D01*
D11*
X101206100Y-113163700D02*
X101206100Y-111576200D01*
D10*
X112318600Y-105226200D02*
X112318600Y-109036200D01*
X112318600Y-109036200D02*
X110413600Y-109036200D01*
X117081100Y-107131200D02*
X117081100Y-110941200D01*
X115176100Y-94113700D02*
X118986100Y-94113700D01*
X107873600Y-109036200D02*
X105968600Y-109036200D01*
X105968600Y-109036200D02*
X105968600Y-105226200D01*
X130416100Y-101098700D02*
X134226100Y-101098700D01*
D11*
X114541100Y-122688700D02*
X114541100Y-117608700D01*
D10*
X105016100Y-96018700D02*
X105016100Y-94113700D01*
X167246100Y-91573700D02*
X168516100Y-90938700D01*
X185661100Y-90303700D02*
X185661100Y-91573700D01*
X186931100Y-90938700D02*
X185661100Y-90303700D01*
X134226100Y-101098700D02*
X134226100Y-103003700D01*
X105016100Y-100463700D02*
X106921100Y-100463700D01*
X148196100Y-90303700D02*
X148196100Y-91573700D01*
X134226100Y-105543700D02*
X130416100Y-105543700D01*
X110413600Y-109036200D02*
X110413600Y-105226200D01*
X106921100Y-100146200D02*
X105016100Y-100146200D01*
X110096100Y-105226200D02*
X110096100Y-109036200D01*
X115176100Y-107131200D02*
X117081100Y-107131200D01*
X168516100Y-90303700D02*
X168516100Y-91573700D01*
X108826100Y-96018700D02*
X105016100Y-96018700D01*
D11*
X114541100Y-111576200D02*
X114541100Y-113163700D01*
D10*
X114858600Y-110941200D02*
X112953600Y-110941200D01*
X134226100Y-103003700D02*
X130416100Y-103003700D01*
D11*
X101206100Y-111576200D02*
X103428600Y-111576200D01*
D10*
X130416100Y-105543700D02*
X130416100Y-103638700D01*
X108191100Y-105226200D02*
X110096100Y-105226200D01*
D11*
X101206100Y-122688700D02*
X101206100Y-117608700D01*
D10*
X115176100Y-110941200D02*
X115176100Y-107131200D01*
X105016100Y-96336200D02*
X106921100Y-96336200D01*
X107873600Y-105226200D02*
X107873600Y-109036200D01*
X130416100Y-103638700D02*
X134226100Y-103638700D01*
X186931100Y-90303700D02*
X186931100Y-91573700D01*
X108191100Y-109036200D02*
X108191100Y-105226200D01*
X115176100Y-96018700D02*
X115176100Y-94113700D01*
X148196100Y-91573700D02*
X149466100Y-90938700D01*
X117081100Y-110941200D02*
X115176100Y-110941200D01*
D11*
X112318600Y-111576200D02*
X114541100Y-111576200D01*
D10*
X167246100Y-90303700D02*
X167246100Y-91573700D01*
X106921100Y-104273700D02*
X105016100Y-104273700D01*
X105016100Y-104273700D02*
X105016100Y-100463700D01*
X134226100Y-103638700D02*
X134226100Y-105543700D01*
D12*
X183445080Y-88763661D02*
X183445080Y-89217668D01*
X183471786Y-89271081D01*
X183498493Y-89297787D01*
X183551905Y-89324493D01*
X183658730Y-89324493D01*
X183712143Y-89297787D01*
X183738849Y-89271081D01*
X183765556Y-89217668D01*
X183765556Y-88763661D01*
X184005912Y-89297787D02*
X184086031Y-89324493D01*
X184219562Y-89324493D01*
X184272975Y-89297787D01*
X184299681Y-89271081D01*
X184326388Y-89217668D01*
X184326388Y-89164256D01*
X184299681Y-89110843D01*
X184272975Y-89084137D01*
X184219562Y-89057430D01*
X184112737Y-89030724D01*
X184059325Y-89004018D01*
X184032618Y-88977312D01*
X184005912Y-88923899D01*
X184005912Y-88870486D01*
X184032618Y-88817074D01*
X184059325Y-88790368D01*
X184112737Y-88763661D01*
X184246269Y-88763661D01*
X184326388Y-88790368D01*
X184753688Y-89030724D02*
X184833807Y-89057430D01*
X184860513Y-89084137D01*
X184887220Y-89137549D01*
X184887220Y-89217668D01*
X184860513Y-89271081D01*
X184833807Y-89297787D01*
X184780394Y-89324493D01*
X184566744Y-89324493D01*
X184566744Y-88763661D01*
X184753688Y-88763661D01*
X184807101Y-88790368D01*
X184833807Y-88817074D01*
X184860513Y-88870486D01*
X184860513Y-88923899D01*
X184833807Y-88977312D01*
X184807101Y-89004018D01*
X184753688Y-89030724D01*
X184566744Y-89030724D01*
X185474758Y-88763661D02*
X185795233Y-88763661D01*
X185634996Y-89324493D02*
X185634996Y-88763661D01*
X185982177Y-89324493D02*
X185982177Y-88763661D01*
X185982177Y-89030724D02*
X186302653Y-89030724D01*
X186302653Y-89324493D02*
X186302653Y-88763661D01*
X186569716Y-89324493D02*
X186569716Y-88763661D01*
X186810072Y-89297787D02*
X186890191Y-89324493D01*
X187023722Y-89324493D01*
X187077135Y-89297787D01*
X187103841Y-89271081D01*
X187130548Y-89217668D01*
X187130548Y-89164256D01*
X187103841Y-89110843D01*
X187077135Y-89084137D01*
X187023722Y-89057430D01*
X186916897Y-89030724D01*
X186863485Y-89004018D01*
X186836778Y-88977312D01*
X186810072Y-88923899D01*
X186810072Y-88870486D01*
X186836778Y-88817074D01*
X186863485Y-88790368D01*
X186916897Y-88763661D01*
X187050429Y-88763661D01*
X187130548Y-88790368D01*
X187771498Y-89297787D02*
X187851617Y-89324493D01*
X187985149Y-89324493D01*
X188038561Y-89297787D01*
X188065268Y-89271081D01*
X188091974Y-89217668D01*
X188091974Y-89164256D01*
X188065268Y-89110843D01*
X188038561Y-89084137D01*
X187985149Y-89057430D01*
X187878324Y-89030724D01*
X187824911Y-89004018D01*
X187798205Y-88977312D01*
X187771498Y-88923899D01*
X187771498Y-88870486D01*
X187798205Y-88817074D01*
X187824911Y-88790368D01*
X187878324Y-88763661D01*
X188011855Y-88763661D01*
X188091974Y-88790368D01*
X188332330Y-89324493D02*
X188332330Y-88763661D01*
X188599393Y-89324493D02*
X188599393Y-88763661D01*
X188732925Y-88763661D01*
X188813044Y-88790368D01*
X188866456Y-88843780D01*
X188893162Y-88897193D01*
X188919869Y-89004018D01*
X188919869Y-89084137D01*
X188893162Y-89190962D01*
X188866456Y-89244374D01*
X188813044Y-89297787D01*
X188732925Y-89324493D01*
X188599393Y-89324493D01*
X189160225Y-89030724D02*
X189347169Y-89030724D01*
X189427288Y-89324493D02*
X189160225Y-89324493D01*
X189160225Y-88763661D01*
X189427288Y-88763661D01*
D13*
X167519089Y-106538315D02*
X166584369Y-106538315D01*
X166584369Y-106182231D01*
X166628880Y-106093210D01*
X166673390Y-106048700D01*
X166762411Y-106004189D01*
X166895942Y-106004189D01*
X166984963Y-106048700D01*
X167029474Y-106093210D01*
X167073984Y-106182231D01*
X167073984Y-106538315D01*
X167519089Y-105158490D02*
X167519089Y-105603595D01*
X166584369Y-105603595D01*
X167252026Y-104891428D02*
X167252026Y-104446323D01*
X167519089Y-104980448D02*
X166584369Y-104668875D01*
X167519089Y-104357302D01*
X167073984Y-103867687D02*
X167519089Y-103867687D01*
X166584369Y-104179260D02*
X167073984Y-103867687D01*
X166584369Y-103556113D01*
X167029474Y-103244540D02*
X167029474Y-102932967D01*
X167519089Y-102799435D02*
X167519089Y-103244540D01*
X166584369Y-103244540D01*
X166584369Y-102799435D01*
X167519089Y-101864715D02*
X167073984Y-102176288D01*
X167519089Y-102398841D02*
X166584369Y-102398841D01*
X166584369Y-102042757D01*
X166628880Y-101953736D01*
X166673390Y-101909226D01*
X166762411Y-101864715D01*
X166895942Y-101864715D01*
X166984963Y-101909226D01*
X167029474Y-101953736D01*
X167073984Y-102042757D01*
X167073984Y-102398841D01*
X166584369Y-100840974D02*
X166584369Y-100262338D01*
X166940453Y-100573911D01*
X166940453Y-100440380D01*
X166984963Y-100351359D01*
X167029474Y-100306848D01*
X167118495Y-100262338D01*
X167341047Y-100262338D01*
X167430068Y-100306848D01*
X167474579Y-100351359D01*
X167519089Y-100440380D01*
X167519089Y-100707443D01*
X167474579Y-100796464D01*
X167430068Y-100840974D01*
X186251589Y-106538315D02*
X185316869Y-106538315D01*
X185316869Y-106182231D01*
X185361380Y-106093210D01*
X185405890Y-106048700D01*
X185494911Y-106004189D01*
X185628442Y-106004189D01*
X185717463Y-106048700D01*
X185761974Y-106093210D01*
X185806484Y-106182231D01*
X185806484Y-106538315D01*
X186251589Y-105158490D02*
X186251589Y-105603595D01*
X185316869Y-105603595D01*
X185984526Y-104891428D02*
X185984526Y-104446323D01*
X186251589Y-104980448D02*
X185316869Y-104668875D01*
X186251589Y-104357302D01*
X185806484Y-103867687D02*
X186251589Y-103867687D01*
X185316869Y-104179260D02*
X185806484Y-103867687D01*
X185316869Y-103556113D01*
X185761974Y-103244540D02*
X185761974Y-102932967D01*
X186251589Y-102799435D02*
X186251589Y-103244540D01*
X185316869Y-103244540D01*
X185316869Y-102799435D01*
X186251589Y-101864715D02*
X185806484Y-102176288D01*
X186251589Y-102398841D02*
X185316869Y-102398841D01*
X185316869Y-102042757D01*
X185361380Y-101953736D01*
X185405890Y-101909226D01*
X185494911Y-101864715D01*
X185628442Y-101864715D01*
X185717463Y-101909226D01*
X185761974Y-101953736D01*
X185806484Y-102042757D01*
X185806484Y-102398841D01*
X185628442Y-100351359D02*
X186251589Y-100351359D01*
X185272359Y-100573911D02*
X185940016Y-100796464D01*
X185940016Y-100217828D01*
D12*
X127247580Y-88763661D02*
X127247580Y-89217668D01*
X127274286Y-89271081D01*
X127300993Y-89297787D01*
X127354405Y-89324493D01*
X127461230Y-89324493D01*
X127514643Y-89297787D01*
X127541349Y-89271081D01*
X127568056Y-89217668D01*
X127568056Y-88763661D01*
X127808412Y-89297787D02*
X127888531Y-89324493D01*
X128022062Y-89324493D01*
X128075475Y-89297787D01*
X128102181Y-89271081D01*
X128128888Y-89217668D01*
X128128888Y-89164256D01*
X128102181Y-89110843D01*
X128075475Y-89084137D01*
X128022062Y-89057430D01*
X127915237Y-89030724D01*
X127861825Y-89004018D01*
X127835118Y-88977312D01*
X127808412Y-88923899D01*
X127808412Y-88870486D01*
X127835118Y-88817074D01*
X127861825Y-88790368D01*
X127915237Y-88763661D01*
X128048769Y-88763661D01*
X128128888Y-88790368D01*
X128556188Y-89030724D02*
X128636307Y-89057430D01*
X128663013Y-89084137D01*
X128689720Y-89137549D01*
X128689720Y-89217668D01*
X128663013Y-89271081D01*
X128636307Y-89297787D01*
X128582894Y-89324493D01*
X128369244Y-89324493D01*
X128369244Y-88763661D01*
X128556188Y-88763661D01*
X128609601Y-88790368D01*
X128636307Y-88817074D01*
X128663013Y-88870486D01*
X128663013Y-88923899D01*
X128636307Y-88977312D01*
X128609601Y-89004018D01*
X128556188Y-89030724D01*
X128369244Y-89030724D01*
X129277258Y-88763661D02*
X129597733Y-88763661D01*
X129437496Y-89324493D02*
X129437496Y-88763661D01*
X129784677Y-89324493D02*
X129784677Y-88763661D01*
X129784677Y-89030724D02*
X130105153Y-89030724D01*
X130105153Y-89324493D02*
X130105153Y-88763661D01*
X130372216Y-89324493D02*
X130372216Y-88763661D01*
X130612572Y-89297787D02*
X130692691Y-89324493D01*
X130826222Y-89324493D01*
X130879635Y-89297787D01*
X130906341Y-89271081D01*
X130933048Y-89217668D01*
X130933048Y-89164256D01*
X130906341Y-89110843D01*
X130879635Y-89084137D01*
X130826222Y-89057430D01*
X130719397Y-89030724D01*
X130665985Y-89004018D01*
X130639278Y-88977312D01*
X130612572Y-88923899D01*
X130612572Y-88870486D01*
X130639278Y-88817074D01*
X130665985Y-88790368D01*
X130719397Y-88763661D01*
X130852929Y-88763661D01*
X130933048Y-88790368D01*
X131573998Y-89297787D02*
X131654117Y-89324493D01*
X131787649Y-89324493D01*
X131841061Y-89297787D01*
X131867768Y-89271081D01*
X131894474Y-89217668D01*
X131894474Y-89164256D01*
X131867768Y-89110843D01*
X131841061Y-89084137D01*
X131787649Y-89057430D01*
X131680824Y-89030724D01*
X131627411Y-89004018D01*
X131600705Y-88977312D01*
X131573998Y-88923899D01*
X131573998Y-88870486D01*
X131600705Y-88817074D01*
X131627411Y-88790368D01*
X131680824Y-88763661D01*
X131814355Y-88763661D01*
X131894474Y-88790368D01*
X132134830Y-89324493D02*
X132134830Y-88763661D01*
X132401893Y-89324493D02*
X132401893Y-88763661D01*
X132535425Y-88763661D01*
X132615544Y-88790368D01*
X132668956Y-88843780D01*
X132695662Y-88897193D01*
X132722369Y-89004018D01*
X132722369Y-89084137D01*
X132695662Y-89190962D01*
X132668956Y-89244374D01*
X132615544Y-89297787D01*
X132535425Y-89324493D01*
X132401893Y-89324493D01*
X132962725Y-89030724D02*
X133149669Y-89030724D01*
X133229788Y-89324493D02*
X132962725Y-89324493D01*
X132962725Y-88763661D01*
X133229788Y-88763661D01*
D13*
X148786589Y-106538315D02*
X147851869Y-106538315D01*
X147851869Y-106182231D01*
X147896380Y-106093210D01*
X147940890Y-106048700D01*
X148029911Y-106004189D01*
X148163442Y-106004189D01*
X148252463Y-106048700D01*
X148296974Y-106093210D01*
X148341484Y-106182231D01*
X148341484Y-106538315D01*
X148786589Y-105158490D02*
X148786589Y-105603595D01*
X147851869Y-105603595D01*
X148519526Y-104891428D02*
X148519526Y-104446323D01*
X148786589Y-104980448D02*
X147851869Y-104668875D01*
X148786589Y-104357302D01*
X148341484Y-103867687D02*
X148786589Y-103867687D01*
X147851869Y-104179260D02*
X148341484Y-103867687D01*
X147851869Y-103556113D01*
X148296974Y-103244540D02*
X148296974Y-102932967D01*
X148786589Y-102799435D02*
X148786589Y-103244540D01*
X147851869Y-103244540D01*
X147851869Y-102799435D01*
X148786589Y-101864715D02*
X148341484Y-102176288D01*
X148786589Y-102398841D02*
X147851869Y-102398841D01*
X147851869Y-102042757D01*
X147896380Y-101953736D01*
X147940890Y-101909226D01*
X148029911Y-101864715D01*
X148163442Y-101864715D01*
X148252463Y-101909226D01*
X148296974Y-101953736D01*
X148341484Y-102042757D01*
X148341484Y-102398841D01*
X147940890Y-100796464D02*
X147896380Y-100751953D01*
X147851869Y-100662932D01*
X147851869Y-100440380D01*
X147896380Y-100351359D01*
X147940890Y-100306848D01*
X148029911Y-100262338D01*
X148118932Y-100262338D01*
X148252463Y-100306848D01*
X148786589Y-100840974D01*
X148786589Y-100262338D01*
X108048110Y-88354189D02*
X107736536Y-87909084D01*
X107513984Y-88354189D02*
X107513984Y-87419469D01*
X107870068Y-87419469D01*
X107959089Y-87463980D01*
X108003599Y-87508490D01*
X108048110Y-87597511D01*
X108048110Y-87731042D01*
X108003599Y-87820063D01*
X107959089Y-87864574D01*
X107870068Y-87909084D01*
X107513984Y-87909084D01*
X108448704Y-87864574D02*
X108760277Y-87864574D01*
X108893809Y-88354189D02*
X108448704Y-88354189D01*
X108448704Y-87419469D01*
X108893809Y-87419469D01*
X109249892Y-88309679D02*
X109383424Y-88354189D01*
X109605976Y-88354189D01*
X109694997Y-88309679D01*
X109739508Y-88265168D01*
X109784018Y-88176147D01*
X109784018Y-88087126D01*
X109739508Y-87998105D01*
X109694997Y-87953595D01*
X109605976Y-87909084D01*
X109427934Y-87864574D01*
X109338913Y-87820063D01*
X109294403Y-87775553D01*
X109249892Y-87686532D01*
X109249892Y-87597511D01*
X109294403Y-87508490D01*
X109338913Y-87463980D01*
X109427934Y-87419469D01*
X109650487Y-87419469D01*
X109784018Y-87463980D01*
X110184612Y-87864574D02*
X110496186Y-87864574D01*
X110629717Y-88354189D02*
X110184612Y-88354189D01*
X110184612Y-87419469D01*
X110629717Y-87419469D01*
X110896780Y-87419469D02*
X111430906Y-87419469D01*
X111163843Y-88354189D02*
X111163843Y-87419469D01*
D12*
X164712580Y-88763661D02*
X164712580Y-89217668D01*
X164739286Y-89271081D01*
X164765993Y-89297787D01*
X164819405Y-89324493D01*
X164926230Y-89324493D01*
X164979643Y-89297787D01*
X165006349Y-89271081D01*
X165033056Y-89217668D01*
X165033056Y-88763661D01*
X165273412Y-89297787D02*
X165353531Y-89324493D01*
X165487062Y-89324493D01*
X165540475Y-89297787D01*
X165567181Y-89271081D01*
X165593888Y-89217668D01*
X165593888Y-89164256D01*
X165567181Y-89110843D01*
X165540475Y-89084137D01*
X165487062Y-89057430D01*
X165380237Y-89030724D01*
X165326825Y-89004018D01*
X165300118Y-88977312D01*
X165273412Y-88923899D01*
X165273412Y-88870486D01*
X165300118Y-88817074D01*
X165326825Y-88790368D01*
X165380237Y-88763661D01*
X165513769Y-88763661D01*
X165593888Y-88790368D01*
X166021188Y-89030724D02*
X166101307Y-89057430D01*
X166128013Y-89084137D01*
X166154720Y-89137549D01*
X166154720Y-89217668D01*
X166128013Y-89271081D01*
X166101307Y-89297787D01*
X166047894Y-89324493D01*
X165834244Y-89324493D01*
X165834244Y-88763661D01*
X166021188Y-88763661D01*
X166074601Y-88790368D01*
X166101307Y-88817074D01*
X166128013Y-88870486D01*
X166128013Y-88923899D01*
X166101307Y-88977312D01*
X166074601Y-89004018D01*
X166021188Y-89030724D01*
X165834244Y-89030724D01*
X166742258Y-88763661D02*
X167062733Y-88763661D01*
X166902496Y-89324493D02*
X166902496Y-88763661D01*
X167249677Y-89324493D02*
X167249677Y-88763661D01*
X167249677Y-89030724D02*
X167570153Y-89030724D01*
X167570153Y-89324493D02*
X167570153Y-88763661D01*
X167837216Y-89324493D02*
X167837216Y-88763661D01*
X168077572Y-89297787D02*
X168157691Y-89324493D01*
X168291222Y-89324493D01*
X168344635Y-89297787D01*
X168371341Y-89271081D01*
X168398048Y-89217668D01*
X168398048Y-89164256D01*
X168371341Y-89110843D01*
X168344635Y-89084137D01*
X168291222Y-89057430D01*
X168184397Y-89030724D01*
X168130985Y-89004018D01*
X168104278Y-88977312D01*
X168077572Y-88923899D01*
X168077572Y-88870486D01*
X168104278Y-88817074D01*
X168130985Y-88790368D01*
X168184397Y-88763661D01*
X168317929Y-88763661D01*
X168398048Y-88790368D01*
X169038998Y-89297787D02*
X169119117Y-89324493D01*
X169252649Y-89324493D01*
X169306061Y-89297787D01*
X169332768Y-89271081D01*
X169359474Y-89217668D01*
X169359474Y-89164256D01*
X169332768Y-89110843D01*
X169306061Y-89084137D01*
X169252649Y-89057430D01*
X169145824Y-89030724D01*
X169092411Y-89004018D01*
X169065705Y-88977312D01*
X169038998Y-88923899D01*
X169038998Y-88870486D01*
X169065705Y-88817074D01*
X169092411Y-88790368D01*
X169145824Y-88763661D01*
X169279355Y-88763661D01*
X169359474Y-88790368D01*
X169599830Y-89324493D02*
X169599830Y-88763661D01*
X169866893Y-89324493D02*
X169866893Y-88763661D01*
X170000425Y-88763661D01*
X170080544Y-88790368D01*
X170133956Y-88843780D01*
X170160662Y-88897193D01*
X170187369Y-89004018D01*
X170187369Y-89084137D01*
X170160662Y-89190962D01*
X170133956Y-89244374D01*
X170080544Y-89297787D01*
X170000425Y-89324493D01*
X169866893Y-89324493D01*
X170427725Y-89030724D02*
X170614669Y-89030724D01*
X170694788Y-89324493D02*
X170427725Y-89324493D01*
X170427725Y-88763661D01*
X170694788Y-88763661D01*
D13*
X128549190Y-106538315D02*
X127614470Y-106538315D01*
X127614470Y-106182231D01*
X127658981Y-106093210D01*
X127703491Y-106048700D01*
X127792512Y-106004189D01*
X127926043Y-106004189D01*
X128015064Y-106048700D01*
X128059575Y-106093210D01*
X128104085Y-106182231D01*
X128104085Y-106538315D01*
X128549190Y-105158490D02*
X128549190Y-105603595D01*
X127614470Y-105603595D01*
X128282127Y-104891428D02*
X128282127Y-104446323D01*
X128549190Y-104980448D02*
X127614470Y-104668875D01*
X128549190Y-104357302D01*
X128104085Y-103867687D02*
X128549190Y-103867687D01*
X127614470Y-104179260D02*
X128104085Y-103867687D01*
X127614470Y-103556113D01*
X128059575Y-103244540D02*
X128059575Y-102932967D01*
X128549190Y-102799435D02*
X128549190Y-103244540D01*
X127614470Y-103244540D01*
X127614470Y-102799435D01*
X128549190Y-101864715D02*
X128104085Y-102176288D01*
X128549190Y-102398841D02*
X127614470Y-102398841D01*
X127614470Y-102042757D01*
X127658981Y-101953736D01*
X127703491Y-101909226D01*
X127792512Y-101864715D01*
X127926043Y-101864715D01*
X128015064Y-101909226D01*
X128059575Y-101953736D01*
X128104085Y-102042757D01*
X128104085Y-102398841D01*
X128549190Y-100262338D02*
X128549190Y-100796464D01*
X128549190Y-100529401D02*
X127614470Y-100529401D01*
X127748001Y-100618422D01*
X127837022Y-100707443D01*
X127881533Y-100796464D01*
X128282127Y-99194087D02*
X128282127Y-98748982D01*
X128549190Y-99283108D02*
X127614470Y-98971534D01*
X128549190Y-98659961D01*
X128549190Y-98348388D02*
X127614470Y-98348388D01*
X128549190Y-97814262D01*
X127614470Y-97814262D01*
X128549190Y-97369157D02*
X127614470Y-97369157D01*
X127614470Y-97146605D01*
X127658981Y-97013073D01*
X127748001Y-96924052D01*
X127837022Y-96879542D01*
X128015064Y-96835031D01*
X128148596Y-96835031D01*
X128326638Y-96879542D01*
X128415659Y-96924052D01*
X128504680Y-97013073D01*
X128549190Y-97146605D01*
X128549190Y-97369157D01*
X129119369Y-106538315D02*
X129876047Y-106538315D01*
X129965068Y-106493805D01*
X130009579Y-106449294D01*
X130054089Y-106360273D01*
X130054089Y-106182231D01*
X130009579Y-106093210D01*
X129965068Y-106048700D01*
X129876047Y-106004189D01*
X129119369Y-106004189D01*
X130009579Y-105603595D02*
X130054089Y-105470064D01*
X130054089Y-105247511D01*
X130009579Y-105158490D01*
X129965068Y-105113980D01*
X129876047Y-105069469D01*
X129787026Y-105069469D01*
X129698005Y-105113980D01*
X129653495Y-105158490D01*
X129608984Y-105247511D01*
X129564474Y-105425553D01*
X129519963Y-105514574D01*
X129475453Y-105559085D01*
X129386432Y-105603595D01*
X129297411Y-105603595D01*
X129208390Y-105559085D01*
X129163880Y-105514574D01*
X129119369Y-105425553D01*
X129119369Y-105203001D01*
X129163880Y-105069469D01*
X129564474Y-104357302D02*
X129608984Y-104223770D01*
X129653495Y-104179260D01*
X129742516Y-104134749D01*
X129876047Y-104134749D01*
X129965068Y-104179260D01*
X130009579Y-104223770D01*
X130054089Y-104312791D01*
X130054089Y-104668875D01*
X129119369Y-104668875D01*
X129119369Y-104357302D01*
X129163880Y-104268281D01*
X129208390Y-104223770D01*
X129297411Y-104179260D01*
X129386432Y-104179260D01*
X129475453Y-104223770D01*
X129519963Y-104268281D01*
X129564474Y-104357302D01*
X129564474Y-104668875D01*
X130054089Y-103021988D02*
X129119369Y-103021988D01*
X129564474Y-103021988D02*
X129564474Y-102487862D01*
X130054089Y-102487862D02*
X129119369Y-102487862D01*
X129119369Y-101864715D02*
X129119369Y-101686673D01*
X129163880Y-101597652D01*
X129252900Y-101508631D01*
X129430942Y-101464121D01*
X129742516Y-101464121D01*
X129920558Y-101508631D01*
X130009579Y-101597652D01*
X130054089Y-101686673D01*
X130054089Y-101864715D01*
X130009579Y-101953736D01*
X129920558Y-102042757D01*
X129742516Y-102087268D01*
X129430942Y-102087268D01*
X129252900Y-102042757D01*
X129163880Y-101953736D01*
X129119369Y-101864715D01*
X130009579Y-101108037D02*
X130054089Y-100974506D01*
X130054089Y-100751953D01*
X130009579Y-100662932D01*
X129965068Y-100618422D01*
X129876047Y-100573911D01*
X129787026Y-100573911D01*
X129698005Y-100618422D01*
X129653495Y-100662932D01*
X129608984Y-100751953D01*
X129564474Y-100929995D01*
X129519963Y-101019016D01*
X129475453Y-101063527D01*
X129386432Y-101108037D01*
X129297411Y-101108037D01*
X129208390Y-101063527D01*
X129163880Y-101019016D01*
X129119369Y-100929995D01*
X129119369Y-100707443D01*
X129163880Y-100573911D01*
X129119369Y-100306848D02*
X129119369Y-99772723D01*
X130054089Y-100039786D02*
X129119369Y-100039786D01*
X130054089Y-98748982D02*
X129119369Y-98748982D01*
X129119369Y-98526429D01*
X129163880Y-98392898D01*
X129252900Y-98303877D01*
X129341921Y-98259367D01*
X129519963Y-98214856D01*
X129653495Y-98214856D01*
X129831537Y-98259367D01*
X129920558Y-98303877D01*
X130009579Y-98392898D01*
X130054089Y-98526429D01*
X130054089Y-98748982D01*
X130054089Y-97280136D02*
X129608984Y-97591709D01*
X130054089Y-97814262D02*
X129119369Y-97814262D01*
X129119369Y-97458178D01*
X129163880Y-97369157D01*
X129208390Y-97324647D01*
X129297411Y-97280136D01*
X129430942Y-97280136D01*
X129519963Y-97324647D01*
X129564474Y-97369157D01*
X129608984Y-97458178D01*
X129608984Y-97814262D01*
X130054089Y-96879542D02*
X129119369Y-96879542D01*
X129119369Y-96567968D02*
X130054089Y-96256395D01*
X129119369Y-95944822D01*
X129564474Y-95633248D02*
X129564474Y-95321675D01*
X130054089Y-95188144D02*
X130054089Y-95633248D01*
X129119369Y-95633248D01*
X129119369Y-95188144D01*
X130054089Y-94253424D02*
X129608984Y-94564997D01*
X130054089Y-94787549D02*
X129119369Y-94787549D01*
X129119369Y-94431466D01*
X129163880Y-94342445D01*
X129208390Y-94297934D01*
X129297411Y-94253424D01*
X129430942Y-94253424D01*
X129519963Y-94297934D01*
X129564474Y-94342445D01*
X129608984Y-94431466D01*
X129608984Y-94787549D01*
D12*
X145821330Y-88763661D02*
X145821330Y-89217668D01*
X145848036Y-89271081D01*
X145874743Y-89297787D01*
X145928155Y-89324493D01*
X146034980Y-89324493D01*
X146088393Y-89297787D01*
X146115099Y-89271081D01*
X146141806Y-89217668D01*
X146141806Y-88763661D01*
X146382162Y-89297787D02*
X146462281Y-89324493D01*
X146595812Y-89324493D01*
X146649225Y-89297787D01*
X146675931Y-89271081D01*
X146702638Y-89217668D01*
X146702638Y-89164256D01*
X146675931Y-89110843D01*
X146649225Y-89084137D01*
X146595812Y-89057430D01*
X146488987Y-89030724D01*
X146435575Y-89004018D01*
X146408868Y-88977312D01*
X146382162Y-88923899D01*
X146382162Y-88870486D01*
X146408868Y-88817074D01*
X146435575Y-88790368D01*
X146488987Y-88763661D01*
X146622519Y-88763661D01*
X146702638Y-88790368D01*
X147129938Y-89030724D02*
X147210057Y-89057430D01*
X147236763Y-89084137D01*
X147263470Y-89137549D01*
X147263470Y-89217668D01*
X147236763Y-89271081D01*
X147210057Y-89297787D01*
X147156644Y-89324493D01*
X146942994Y-89324493D01*
X146942994Y-88763661D01*
X147129938Y-88763661D01*
X147183351Y-88790368D01*
X147210057Y-88817074D01*
X147236763Y-88870486D01*
X147236763Y-88923899D01*
X147210057Y-88977312D01*
X147183351Y-89004018D01*
X147129938Y-89030724D01*
X146942994Y-89030724D01*
X147851008Y-88763661D02*
X148171483Y-88763661D01*
X148011246Y-89324493D02*
X148011246Y-88763661D01*
X148358427Y-89324493D02*
X148358427Y-88763661D01*
X148358427Y-89030724D02*
X148678903Y-89030724D01*
X148678903Y-89324493D02*
X148678903Y-88763661D01*
X148945966Y-89324493D02*
X148945966Y-88763661D01*
X149186322Y-89297787D02*
X149266441Y-89324493D01*
X149399972Y-89324493D01*
X149453385Y-89297787D01*
X149480091Y-89271081D01*
X149506798Y-89217668D01*
X149506798Y-89164256D01*
X149480091Y-89110843D01*
X149453385Y-89084137D01*
X149399972Y-89057430D01*
X149293147Y-89030724D01*
X149239735Y-89004018D01*
X149213028Y-88977312D01*
X149186322Y-88923899D01*
X149186322Y-88870486D01*
X149213028Y-88817074D01*
X149239735Y-88790368D01*
X149293147Y-88763661D01*
X149426679Y-88763661D01*
X149506798Y-88790368D01*
X150147748Y-89297787D02*
X150227867Y-89324493D01*
X150361399Y-89324493D01*
X150414811Y-89297787D01*
X150441518Y-89271081D01*
X150468224Y-89217668D01*
X150468224Y-89164256D01*
X150441518Y-89110843D01*
X150414811Y-89084137D01*
X150361399Y-89057430D01*
X150254574Y-89030724D01*
X150201161Y-89004018D01*
X150174455Y-88977312D01*
X150147748Y-88923899D01*
X150147748Y-88870486D01*
X150174455Y-88817074D01*
X150201161Y-88790368D01*
X150254574Y-88763661D01*
X150388105Y-88763661D01*
X150468224Y-88790368D01*
X150708580Y-89324493D02*
X150708580Y-88763661D01*
X150975643Y-89324493D02*
X150975643Y-88763661D01*
X151109175Y-88763661D01*
X151189294Y-88790368D01*
X151242706Y-88843780D01*
X151269412Y-88897193D01*
X151296119Y-89004018D01*
X151296119Y-89084137D01*
X151269412Y-89190962D01*
X151242706Y-89244374D01*
X151189294Y-89297787D01*
X151109175Y-89324493D01*
X150975643Y-89324493D01*
X151536475Y-89030724D02*
X151723419Y-89030724D01*
X151803538Y-89324493D02*
X151536475Y-89324493D01*
X151536475Y-88763661D01*
X151803538Y-88763661D01*
D14*
%TO.C,C6*%
X117549433Y-101430842D02*
X117501814Y-101478461D01*
X117358957Y-101526080D01*
X117263719Y-101526080D01*
X117120861Y-101478461D01*
X117025623Y-101383223D01*
X116978004Y-101287985D01*
X116930385Y-101097509D01*
X116930385Y-100954652D01*
X116978004Y-100764176D01*
X117025623Y-100668938D01*
X117120861Y-100573700D01*
X117263719Y-100526080D01*
X117358957Y-100526080D01*
X117501814Y-100573700D01*
X117549433Y-100621319D01*
X118406576Y-100526080D02*
X118216100Y-100526080D01*
X118120861Y-100573700D01*
X118073242Y-100621319D01*
X117978004Y-100764176D01*
X117930385Y-100954652D01*
X117930385Y-101335604D01*
X117978004Y-101430842D01*
X118025623Y-101478461D01*
X118120861Y-101526080D01*
X118311338Y-101526080D01*
X118406576Y-101478461D01*
X118454195Y-101430842D01*
X118501814Y-101335604D01*
X118501814Y-101097509D01*
X118454195Y-101002271D01*
X118406576Y-100954652D01*
X118311338Y-100907033D01*
X118120861Y-100907033D01*
X118025623Y-100954652D01*
X117978004Y-101002271D01*
X117930385Y-101097509D01*
%TO.C,U1*%
X110012091Y-94149315D02*
X110012091Y-94667718D01*
X110042585Y-94728707D01*
X110073080Y-94759201D01*
X110134068Y-94789695D01*
X110256045Y-94789695D01*
X110317034Y-94759201D01*
X110347528Y-94728707D01*
X110378022Y-94667718D01*
X110378022Y-94149315D01*
X111018402Y-94789695D02*
X110652471Y-94789695D01*
X110835437Y-94789695D02*
X110835437Y-94149315D01*
X110774448Y-94240798D01*
X110713460Y-94301787D01*
X110652471Y-94332281D01*
%TO.C,R3*%
X132154433Y-103393580D02*
X131821100Y-102917390D01*
X131583004Y-103393580D02*
X131583004Y-102393580D01*
X131963957Y-102393580D01*
X132059195Y-102441200D01*
X132106814Y-102488819D01*
X132154433Y-102584057D01*
X132154433Y-102726914D01*
X132106814Y-102822152D01*
X132059195Y-102869771D01*
X131963957Y-102917390D01*
X131583004Y-102917390D01*
X132487766Y-102393580D02*
X133106814Y-102393580D01*
X132773480Y-102774533D01*
X132916338Y-102774533D01*
X133011576Y-102822152D01*
X133059195Y-102869771D01*
X133106814Y-102965009D01*
X133106814Y-103203104D01*
X133059195Y-103298342D01*
X133011576Y-103345961D01*
X132916338Y-103393580D01*
X132630623Y-103393580D01*
X132535385Y-103345961D01*
X132487766Y-103298342D01*
%TO.C,D2*%
X167143004Y-93391080D02*
X167143004Y-92391080D01*
X167381100Y-92391080D01*
X167523957Y-92438700D01*
X167619195Y-92533938D01*
X167666814Y-92629176D01*
X167714433Y-92819652D01*
X167714433Y-92962509D01*
X167666814Y-93152985D01*
X167619195Y-93248223D01*
X167523957Y-93343461D01*
X167381100Y-93391080D01*
X167143004Y-93391080D01*
X168095385Y-92486319D02*
X168143004Y-92438700D01*
X168238242Y-92391080D01*
X168476338Y-92391080D01*
X168571576Y-92438700D01*
X168619195Y-92486319D01*
X168666814Y-92581557D01*
X168666814Y-92676795D01*
X168619195Y-92819652D01*
X168047766Y-93391080D01*
X168666814Y-93391080D01*
D15*
%TO.C,U7*%
X180765799Y-120216941D02*
X181121882Y-120216941D01*
X180694582Y-120430591D02*
X180943841Y-119682815D01*
X181193099Y-120430591D01*
X181869658Y-120430591D02*
X181620400Y-120074507D01*
X181442358Y-120430591D02*
X181442358Y-119682815D01*
X181727225Y-119682815D01*
X181798442Y-119718424D01*
X181834050Y-119754032D01*
X181869658Y-119825249D01*
X181869658Y-119932074D01*
X181834050Y-120003291D01*
X181798442Y-120038899D01*
X181727225Y-120074507D01*
X181442358Y-120074507D01*
X182190134Y-120430591D02*
X182190134Y-119682815D01*
X182368176Y-119682815D01*
X182475001Y-119718424D01*
X182546218Y-119789640D01*
X182581826Y-119860857D01*
X182617434Y-120003291D01*
X182617434Y-120110116D01*
X182581826Y-120252549D01*
X182546218Y-120323766D01*
X182475001Y-120394983D01*
X182368176Y-120430591D01*
X182190134Y-120430591D01*
X182937910Y-119682815D02*
X182937910Y-120288158D01*
X182973518Y-120359374D01*
X183009127Y-120394983D01*
X183080343Y-120430591D01*
X183222777Y-120430591D01*
X183293994Y-120394983D01*
X183329602Y-120359374D01*
X183365210Y-120288158D01*
X183365210Y-119682815D01*
X183721294Y-120430591D02*
X183721294Y-119682815D01*
X184077378Y-120430591D02*
X184077378Y-119682815D01*
X184504679Y-120430591D01*
X184504679Y-119682815D01*
X185003196Y-119682815D02*
X185145629Y-119682815D01*
X185216846Y-119718424D01*
X185288063Y-119789640D01*
X185323671Y-119932074D01*
X185323671Y-120181332D01*
X185288063Y-120323766D01*
X185216846Y-120394983D01*
X185145629Y-120430591D01*
X185003196Y-120430591D01*
X184931979Y-120394983D01*
X184860762Y-120323766D01*
X184825154Y-120181332D01*
X184825154Y-119932074D01*
X184860762Y-119789640D01*
X184931979Y-119718424D01*
X185003196Y-119682815D01*
X186213881Y-120430591D02*
X186213881Y-119682815D01*
X186498748Y-119682815D01*
X186569965Y-119718424D01*
X186605573Y-119754032D01*
X186641181Y-119825249D01*
X186641181Y-119932074D01*
X186605573Y-120003291D01*
X186569965Y-120038899D01*
X186498748Y-120074507D01*
X186213881Y-120074507D01*
X187388957Y-120430591D02*
X187139699Y-120074507D01*
X186961657Y-120430591D02*
X186961657Y-119682815D01*
X187246524Y-119682815D01*
X187317741Y-119718424D01*
X187353349Y-119754032D01*
X187388957Y-119825249D01*
X187388957Y-119932074D01*
X187353349Y-120003291D01*
X187317741Y-120038899D01*
X187246524Y-120074507D01*
X186961657Y-120074507D01*
X187851866Y-119682815D02*
X187994300Y-119682815D01*
X188065517Y-119718424D01*
X188136733Y-119789640D01*
X188172342Y-119932074D01*
X188172342Y-120181332D01*
X188136733Y-120323766D01*
X188065517Y-120394983D01*
X187994300Y-120430591D01*
X187851866Y-120430591D01*
X187780650Y-120394983D01*
X187709433Y-120323766D01*
X187673825Y-120181332D01*
X187673825Y-119932074D01*
X187709433Y-119789640D01*
X187780650Y-119718424D01*
X187851866Y-119682815D01*
X189062551Y-120430591D02*
X189062551Y-119682815D01*
X189311810Y-120216941D01*
X189561069Y-119682815D01*
X189561069Y-120430591D01*
X189917153Y-120430591D02*
X189917153Y-119682815D01*
X190700537Y-120359374D02*
X190664929Y-120394983D01*
X190558103Y-120430591D01*
X190486887Y-120430591D01*
X190380061Y-120394983D01*
X190308845Y-120323766D01*
X190273236Y-120252549D01*
X190237628Y-120110116D01*
X190237628Y-120003291D01*
X190273236Y-119860857D01*
X190308845Y-119789640D01*
X190380061Y-119718424D01*
X190486887Y-119682815D01*
X190558103Y-119682815D01*
X190664929Y-119718424D01*
X190700537Y-119754032D01*
X191448313Y-120430591D02*
X191199054Y-120074507D01*
X191021012Y-120430591D02*
X191021012Y-119682815D01*
X191305879Y-119682815D01*
X191377096Y-119718424D01*
X191412705Y-119754032D01*
X191448313Y-119825249D01*
X191448313Y-119932074D01*
X191412705Y-120003291D01*
X191377096Y-120038899D01*
X191305879Y-120074507D01*
X191021012Y-120074507D01*
X191911222Y-119682815D02*
X192053655Y-119682815D01*
X192124872Y-119718424D01*
X192196089Y-119789640D01*
X192231697Y-119932074D01*
X192231697Y-120181332D01*
X192196089Y-120323766D01*
X192124872Y-120394983D01*
X192053655Y-120430591D01*
X191911222Y-120430591D01*
X191840005Y-120394983D01*
X191768788Y-120323766D01*
X191733180Y-120181332D01*
X191733180Y-119932074D01*
X191768788Y-119789640D01*
X191840005Y-119718424D01*
X191911222Y-119682815D01*
X193477991Y-119682815D02*
X193121907Y-119682815D01*
X193086298Y-120038899D01*
X193121907Y-120003291D01*
X193193124Y-119967682D01*
X193371165Y-119967682D01*
X193442382Y-120003291D01*
X193477991Y-120038899D01*
X193513599Y-120110116D01*
X193513599Y-120288158D01*
X193477991Y-120359374D01*
X193442382Y-120394983D01*
X193371165Y-120430591D01*
X193193124Y-120430591D01*
X193121907Y-120394983D01*
X193086298Y-120359374D01*
X193727249Y-119682815D02*
X193976508Y-120430591D01*
X194225767Y-119682815D01*
D14*
%TO.C,C2*%
X104645742Y-102535366D02*
X104693361Y-102582985D01*
X104740980Y-102725842D01*
X104740980Y-102821080D01*
X104693361Y-102963938D01*
X104598123Y-103059176D01*
X104502885Y-103106795D01*
X104312409Y-103154414D01*
X104169552Y-103154414D01*
X103979076Y-103106795D01*
X103883838Y-103059176D01*
X103788600Y-102963938D01*
X103740980Y-102821080D01*
X103740980Y-102725842D01*
X103788600Y-102582985D01*
X103836219Y-102535366D01*
X103836219Y-102154414D02*
X103788600Y-102106795D01*
X103740980Y-102011557D01*
X103740980Y-101773461D01*
X103788600Y-101678223D01*
X103836219Y-101630604D01*
X103931457Y-101582985D01*
X104026695Y-101582985D01*
X104169552Y-101630604D01*
X104740980Y-102202033D01*
X104740980Y-101582985D01*
%TO.C,J1*%
X107555666Y-108148980D02*
X107555666Y-108863266D01*
X107508047Y-109006123D01*
X107412809Y-109101361D01*
X107269952Y-109148980D01*
X107174714Y-109148980D01*
X108555666Y-109148980D02*
X107984238Y-109148980D01*
X108269952Y-109148980D02*
X108269952Y-108148980D01*
X108174714Y-108291838D01*
X108079476Y-108387076D01*
X107984238Y-108434695D01*
%TO.C,C5*%
X106754433Y-97103342D02*
X106706814Y-97150961D01*
X106563957Y-97198580D01*
X106468719Y-97198580D01*
X106325861Y-97150961D01*
X106230623Y-97055723D01*
X106183004Y-96960485D01*
X106135385Y-96770009D01*
X106135385Y-96627152D01*
X106183004Y-96436676D01*
X106230623Y-96341438D01*
X106325861Y-96246200D01*
X106468719Y-96198580D01*
X106563957Y-96198580D01*
X106706814Y-96246200D01*
X106754433Y-96293819D01*
X107659195Y-96198580D02*
X107183004Y-96198580D01*
X107135385Y-96674771D01*
X107183004Y-96627152D01*
X107278242Y-96579533D01*
X107516338Y-96579533D01*
X107611576Y-96627152D01*
X107659195Y-96674771D01*
X107706814Y-96770009D01*
X107706814Y-97008104D01*
X107659195Y-97103342D01*
X107611576Y-97150961D01*
X107516338Y-97198580D01*
X107278242Y-97198580D01*
X107183004Y-97150961D01*
X107135385Y-97103342D01*
%TO.C,R4*%
X132154433Y-100853580D02*
X131821100Y-100377390D01*
X131583004Y-100853580D02*
X131583004Y-99853580D01*
X131963957Y-99853580D01*
X132059195Y-99901200D01*
X132106814Y-99948819D01*
X132154433Y-100044057D01*
X132154433Y-100186914D01*
X132106814Y-100282152D01*
X132059195Y-100329771D01*
X131963957Y-100377390D01*
X131583004Y-100377390D01*
X133011576Y-100186914D02*
X133011576Y-100853580D01*
X132773480Y-99805961D02*
X132535385Y-100520247D01*
X133154433Y-100520247D01*
%TO.C,U3*%
X120967380Y-111258504D02*
X121776904Y-111258504D01*
X121872142Y-111210885D01*
X121919761Y-111163266D01*
X121967380Y-111068028D01*
X121967380Y-110877552D01*
X121919761Y-110782314D01*
X121872142Y-110734695D01*
X121776904Y-110687076D01*
X120967380Y-110687076D01*
X120967380Y-110306123D02*
X120967380Y-109687076D01*
X121348333Y-110020409D01*
X121348333Y-109877552D01*
X121395952Y-109782314D01*
X121443571Y-109734695D01*
X121538809Y-109687076D01*
X121776904Y-109687076D01*
X121872142Y-109734695D01*
X121919761Y-109782314D01*
X121967380Y-109877552D01*
X121967380Y-110163266D01*
X121919761Y-110258504D01*
X121872142Y-110306123D01*
%TO.C,D3*%
X185558004Y-93391080D02*
X185558004Y-92391080D01*
X185796100Y-92391080D01*
X185938957Y-92438700D01*
X186034195Y-92533938D01*
X186081814Y-92629176D01*
X186129433Y-92819652D01*
X186129433Y-92962509D01*
X186081814Y-93152985D01*
X186034195Y-93248223D01*
X185938957Y-93343461D01*
X185796100Y-93391080D01*
X185558004Y-93391080D01*
X186462766Y-92391080D02*
X187081814Y-92391080D01*
X186748480Y-92772033D01*
X186891338Y-92772033D01*
X186986576Y-92819652D01*
X187034195Y-92867271D01*
X187081814Y-92962509D01*
X187081814Y-93200604D01*
X187034195Y-93295842D01*
X186986576Y-93343461D01*
X186891338Y-93391080D01*
X186605623Y-93391080D01*
X186510385Y-93343461D01*
X186462766Y-93295842D01*
%TO.C,C3*%
X108005742Y-98407866D02*
X108053361Y-98455485D01*
X108100980Y-98598342D01*
X108100980Y-98693580D01*
X108053361Y-98836438D01*
X107958123Y-98931676D01*
X107862885Y-98979295D01*
X107672409Y-99026914D01*
X107529552Y-99026914D01*
X107339076Y-98979295D01*
X107243838Y-98931676D01*
X107148600Y-98836438D01*
X107100980Y-98693580D01*
X107100980Y-98598342D01*
X107148600Y-98455485D01*
X107196219Y-98407866D01*
X107100980Y-98074533D02*
X107100980Y-97455485D01*
X107481933Y-97788819D01*
X107481933Y-97645961D01*
X107529552Y-97550723D01*
X107577171Y-97503104D01*
X107672409Y-97455485D01*
X107910504Y-97455485D01*
X108005742Y-97503104D01*
X108053361Y-97550723D01*
X108100980Y-97645961D01*
X108100980Y-97931676D01*
X108053361Y-98026914D01*
X108005742Y-98074533D01*
%TO.C,C8*%
X118165742Y-109202866D02*
X118213361Y-109250485D01*
X118260980Y-109393342D01*
X118260980Y-109488580D01*
X118213361Y-109631438D01*
X118118123Y-109726676D01*
X118022885Y-109774295D01*
X117832409Y-109821914D01*
X117689552Y-109821914D01*
X117499076Y-109774295D01*
X117403838Y-109726676D01*
X117308600Y-109631438D01*
X117260980Y-109488580D01*
X117260980Y-109393342D01*
X117308600Y-109250485D01*
X117356219Y-109202866D01*
X117689552Y-108631438D02*
X117641933Y-108726676D01*
X117594314Y-108774295D01*
X117499076Y-108821914D01*
X117451457Y-108821914D01*
X117356219Y-108774295D01*
X117308600Y-108726676D01*
X117260980Y-108631438D01*
X117260980Y-108440961D01*
X117308600Y-108345723D01*
X117356219Y-108298104D01*
X117451457Y-108250485D01*
X117499076Y-108250485D01*
X117594314Y-108298104D01*
X117641933Y-108345723D01*
X117689552Y-108440961D01*
X117689552Y-108631438D01*
X117737171Y-108726676D01*
X117784790Y-108774295D01*
X117880028Y-108821914D01*
X118070504Y-108821914D01*
X118165742Y-108774295D01*
X118213361Y-108726676D01*
X118260980Y-108631438D01*
X118260980Y-108440961D01*
X118213361Y-108345723D01*
X118165742Y-108298104D01*
X118070504Y-108250485D01*
X117880028Y-108250485D01*
X117784790Y-108298104D01*
X117737171Y-108345723D01*
X117689552Y-108440961D01*
%TO.C,C7*%
X115943242Y-109202866D02*
X115990861Y-109250485D01*
X116038480Y-109393342D01*
X116038480Y-109488580D01*
X115990861Y-109631438D01*
X115895623Y-109726676D01*
X115800385Y-109774295D01*
X115609909Y-109821914D01*
X115467052Y-109821914D01*
X115276576Y-109774295D01*
X115181338Y-109726676D01*
X115086100Y-109631438D01*
X115038480Y-109488580D01*
X115038480Y-109393342D01*
X115086100Y-109250485D01*
X115133719Y-109202866D01*
X115038480Y-108869533D02*
X115038480Y-108202866D01*
X116038480Y-108631438D01*
%TO.C,C4*%
X113403242Y-107297866D02*
X113450861Y-107345485D01*
X113498480Y-107488342D01*
X113498480Y-107583580D01*
X113450861Y-107726438D01*
X113355623Y-107821676D01*
X113260385Y-107869295D01*
X113069909Y-107916914D01*
X112927052Y-107916914D01*
X112736576Y-107869295D01*
X112641338Y-107821676D01*
X112546100Y-107726438D01*
X112498480Y-107583580D01*
X112498480Y-107488342D01*
X112546100Y-107345485D01*
X112593719Y-107297866D01*
X112831814Y-106440723D02*
X113498480Y-106440723D01*
X112450861Y-106678819D02*
X113165147Y-106916914D01*
X113165147Y-106297866D01*
D15*
%TO.C,U5*%
X143300799Y-120216941D02*
X143656882Y-120216941D01*
X143229582Y-120430591D02*
X143478841Y-119682815D01*
X143728099Y-120430591D01*
X144404658Y-120430591D02*
X144155400Y-120074507D01*
X143977358Y-120430591D02*
X143977358Y-119682815D01*
X144262225Y-119682815D01*
X144333442Y-119718424D01*
X144369050Y-119754032D01*
X144404658Y-119825249D01*
X144404658Y-119932074D01*
X144369050Y-120003291D01*
X144333442Y-120038899D01*
X144262225Y-120074507D01*
X143977358Y-120074507D01*
X144725134Y-120430591D02*
X144725134Y-119682815D01*
X144903176Y-119682815D01*
X145010001Y-119718424D01*
X145081218Y-119789640D01*
X145116826Y-119860857D01*
X145152434Y-120003291D01*
X145152434Y-120110116D01*
X145116826Y-120252549D01*
X145081218Y-120323766D01*
X145010001Y-120394983D01*
X144903176Y-120430591D01*
X144725134Y-120430591D01*
X145472910Y-119682815D02*
X145472910Y-120288158D01*
X145508518Y-120359374D01*
X145544127Y-120394983D01*
X145615343Y-120430591D01*
X145757777Y-120430591D01*
X145828994Y-120394983D01*
X145864602Y-120359374D01*
X145900210Y-120288158D01*
X145900210Y-119682815D01*
X146256294Y-120430591D02*
X146256294Y-119682815D01*
X146612378Y-120430591D02*
X146612378Y-119682815D01*
X147039679Y-120430591D01*
X147039679Y-119682815D01*
X147538196Y-119682815D02*
X147680629Y-119682815D01*
X147751846Y-119718424D01*
X147823063Y-119789640D01*
X147858671Y-119932074D01*
X147858671Y-120181332D01*
X147823063Y-120323766D01*
X147751846Y-120394983D01*
X147680629Y-120430591D01*
X147538196Y-120430591D01*
X147466979Y-120394983D01*
X147395762Y-120323766D01*
X147360154Y-120181332D01*
X147360154Y-119932074D01*
X147395762Y-119789640D01*
X147466979Y-119718424D01*
X147538196Y-119682815D01*
X148748881Y-120430591D02*
X148748881Y-119682815D01*
X149033748Y-119682815D01*
X149104965Y-119718424D01*
X149140573Y-119754032D01*
X149176181Y-119825249D01*
X149176181Y-119932074D01*
X149140573Y-120003291D01*
X149104965Y-120038899D01*
X149033748Y-120074507D01*
X148748881Y-120074507D01*
X149923957Y-120430591D02*
X149674699Y-120074507D01*
X149496657Y-120430591D02*
X149496657Y-119682815D01*
X149781524Y-119682815D01*
X149852741Y-119718424D01*
X149888349Y-119754032D01*
X149923957Y-119825249D01*
X149923957Y-119932074D01*
X149888349Y-120003291D01*
X149852741Y-120038899D01*
X149781524Y-120074507D01*
X149496657Y-120074507D01*
X150386866Y-119682815D02*
X150529300Y-119682815D01*
X150600517Y-119718424D01*
X150671733Y-119789640D01*
X150707342Y-119932074D01*
X150707342Y-120181332D01*
X150671733Y-120323766D01*
X150600517Y-120394983D01*
X150529300Y-120430591D01*
X150386866Y-120430591D01*
X150315650Y-120394983D01*
X150244433Y-120323766D01*
X150208825Y-120181332D01*
X150208825Y-119932074D01*
X150244433Y-119789640D01*
X150315650Y-119718424D01*
X150386866Y-119682815D01*
X151597551Y-120430591D02*
X151597551Y-119682815D01*
X151846810Y-120216941D01*
X152096069Y-119682815D01*
X152096069Y-120430591D01*
X152452153Y-120430591D02*
X152452153Y-119682815D01*
X153235537Y-120359374D02*
X153199929Y-120394983D01*
X153093103Y-120430591D01*
X153021887Y-120430591D01*
X152915061Y-120394983D01*
X152843845Y-120323766D01*
X152808236Y-120252549D01*
X152772628Y-120110116D01*
X152772628Y-120003291D01*
X152808236Y-119860857D01*
X152843845Y-119789640D01*
X152915061Y-119718424D01*
X153021887Y-119682815D01*
X153093103Y-119682815D01*
X153199929Y-119718424D01*
X153235537Y-119754032D01*
X153983313Y-120430591D02*
X153734054Y-120074507D01*
X153556012Y-120430591D02*
X153556012Y-119682815D01*
X153840879Y-119682815D01*
X153912096Y-119718424D01*
X153947705Y-119754032D01*
X153983313Y-119825249D01*
X153983313Y-119932074D01*
X153947705Y-120003291D01*
X153912096Y-120038899D01*
X153840879Y-120074507D01*
X153556012Y-120074507D01*
X154446222Y-119682815D02*
X154588655Y-119682815D01*
X154659872Y-119718424D01*
X154731089Y-119789640D01*
X154766697Y-119932074D01*
X154766697Y-120181332D01*
X154731089Y-120323766D01*
X154659872Y-120394983D01*
X154588655Y-120430591D01*
X154446222Y-120430591D01*
X154375005Y-120394983D01*
X154303788Y-120323766D01*
X154268180Y-120181332D01*
X154268180Y-119932074D01*
X154303788Y-119789640D01*
X154375005Y-119718424D01*
X154446222Y-119682815D01*
X156012991Y-119682815D02*
X155656907Y-119682815D01*
X155621298Y-120038899D01*
X155656907Y-120003291D01*
X155728124Y-119967682D01*
X155906165Y-119967682D01*
X155977382Y-120003291D01*
X156012991Y-120038899D01*
X156048599Y-120110116D01*
X156048599Y-120288158D01*
X156012991Y-120359374D01*
X155977382Y-120394983D01*
X155906165Y-120430591D01*
X155728124Y-120430591D01*
X155656907Y-120394983D01*
X155621298Y-120359374D01*
X156262249Y-119682815D02*
X156511508Y-120430591D01*
X156760767Y-119682815D01*
D14*
%TO.C,R1*%
X111245980Y-107297866D02*
X110769790Y-107631200D01*
X111245980Y-107869295D02*
X110245980Y-107869295D01*
X110245980Y-107488342D01*
X110293600Y-107393104D01*
X110341219Y-107345485D01*
X110436457Y-107297866D01*
X110579314Y-107297866D01*
X110674552Y-107345485D01*
X110722171Y-107393104D01*
X110769790Y-107488342D01*
X110769790Y-107869295D01*
X111245980Y-106345485D02*
X111245980Y-106916914D01*
X111245980Y-106631200D02*
X110245980Y-106631200D01*
X110388838Y-106726438D01*
X110484076Y-106821676D01*
X110531695Y-106916914D01*
D15*
%TO.C,U6*%
X162033299Y-120216941D02*
X162389382Y-120216941D01*
X161962082Y-120430591D02*
X162211341Y-119682815D01*
X162460599Y-120430591D01*
X163137158Y-120430591D02*
X162887900Y-120074507D01*
X162709858Y-120430591D02*
X162709858Y-119682815D01*
X162994725Y-119682815D01*
X163065942Y-119718424D01*
X163101550Y-119754032D01*
X163137158Y-119825249D01*
X163137158Y-119932074D01*
X163101550Y-120003291D01*
X163065942Y-120038899D01*
X162994725Y-120074507D01*
X162709858Y-120074507D01*
X163457634Y-120430591D02*
X163457634Y-119682815D01*
X163635676Y-119682815D01*
X163742501Y-119718424D01*
X163813718Y-119789640D01*
X163849326Y-119860857D01*
X163884934Y-120003291D01*
X163884934Y-120110116D01*
X163849326Y-120252549D01*
X163813718Y-120323766D01*
X163742501Y-120394983D01*
X163635676Y-120430591D01*
X163457634Y-120430591D01*
X164205410Y-119682815D02*
X164205410Y-120288158D01*
X164241018Y-120359374D01*
X164276627Y-120394983D01*
X164347843Y-120430591D01*
X164490277Y-120430591D01*
X164561494Y-120394983D01*
X164597102Y-120359374D01*
X164632710Y-120288158D01*
X164632710Y-119682815D01*
X164988794Y-120430591D02*
X164988794Y-119682815D01*
X165344878Y-120430591D02*
X165344878Y-119682815D01*
X165772179Y-120430591D01*
X165772179Y-119682815D01*
X166270696Y-119682815D02*
X166413129Y-119682815D01*
X166484346Y-119718424D01*
X166555563Y-119789640D01*
X166591171Y-119932074D01*
X166591171Y-120181332D01*
X166555563Y-120323766D01*
X166484346Y-120394983D01*
X166413129Y-120430591D01*
X166270696Y-120430591D01*
X166199479Y-120394983D01*
X166128262Y-120323766D01*
X166092654Y-120181332D01*
X166092654Y-119932074D01*
X166128262Y-119789640D01*
X166199479Y-119718424D01*
X166270696Y-119682815D01*
X167481381Y-120430591D02*
X167481381Y-119682815D01*
X167766248Y-119682815D01*
X167837465Y-119718424D01*
X167873073Y-119754032D01*
X167908681Y-119825249D01*
X167908681Y-119932074D01*
X167873073Y-120003291D01*
X167837465Y-120038899D01*
X167766248Y-120074507D01*
X167481381Y-120074507D01*
X168656457Y-120430591D02*
X168407199Y-120074507D01*
X168229157Y-120430591D02*
X168229157Y-119682815D01*
X168514024Y-119682815D01*
X168585241Y-119718424D01*
X168620849Y-119754032D01*
X168656457Y-119825249D01*
X168656457Y-119932074D01*
X168620849Y-120003291D01*
X168585241Y-120038899D01*
X168514024Y-120074507D01*
X168229157Y-120074507D01*
X169119366Y-119682815D02*
X169261800Y-119682815D01*
X169333017Y-119718424D01*
X169404233Y-119789640D01*
X169439842Y-119932074D01*
X169439842Y-120181332D01*
X169404233Y-120323766D01*
X169333017Y-120394983D01*
X169261800Y-120430591D01*
X169119366Y-120430591D01*
X169048150Y-120394983D01*
X168976933Y-120323766D01*
X168941325Y-120181332D01*
X168941325Y-119932074D01*
X168976933Y-119789640D01*
X169048150Y-119718424D01*
X169119366Y-119682815D01*
X170330051Y-120430591D02*
X170330051Y-119682815D01*
X170579310Y-120216941D01*
X170828569Y-119682815D01*
X170828569Y-120430591D01*
X171184653Y-120430591D02*
X171184653Y-119682815D01*
X171968037Y-120359374D02*
X171932429Y-120394983D01*
X171825603Y-120430591D01*
X171754387Y-120430591D01*
X171647561Y-120394983D01*
X171576345Y-120323766D01*
X171540736Y-120252549D01*
X171505128Y-120110116D01*
X171505128Y-120003291D01*
X171540736Y-119860857D01*
X171576345Y-119789640D01*
X171647561Y-119718424D01*
X171754387Y-119682815D01*
X171825603Y-119682815D01*
X171932429Y-119718424D01*
X171968037Y-119754032D01*
X172715813Y-120430591D02*
X172466554Y-120074507D01*
X172288512Y-120430591D02*
X172288512Y-119682815D01*
X172573379Y-119682815D01*
X172644596Y-119718424D01*
X172680205Y-119754032D01*
X172715813Y-119825249D01*
X172715813Y-119932074D01*
X172680205Y-120003291D01*
X172644596Y-120038899D01*
X172573379Y-120074507D01*
X172288512Y-120074507D01*
X173178722Y-119682815D02*
X173321155Y-119682815D01*
X173392372Y-119718424D01*
X173463589Y-119789640D01*
X173499197Y-119932074D01*
X173499197Y-120181332D01*
X173463589Y-120323766D01*
X173392372Y-120394983D01*
X173321155Y-120430591D01*
X173178722Y-120430591D01*
X173107505Y-120394983D01*
X173036288Y-120323766D01*
X173000680Y-120181332D01*
X173000680Y-119932074D01*
X173036288Y-119789640D01*
X173107505Y-119718424D01*
X173178722Y-119682815D01*
X174745491Y-119682815D02*
X174389407Y-119682815D01*
X174353798Y-120038899D01*
X174389407Y-120003291D01*
X174460624Y-119967682D01*
X174638665Y-119967682D01*
X174709882Y-120003291D01*
X174745491Y-120038899D01*
X174781099Y-120110116D01*
X174781099Y-120288158D01*
X174745491Y-120359374D01*
X174709882Y-120394983D01*
X174638665Y-120430591D01*
X174460624Y-120430591D01*
X174389407Y-120394983D01*
X174353798Y-120359374D01*
X174994749Y-119682815D02*
X175244008Y-120430591D01*
X175493267Y-119682815D01*
D14*
%TO.C,D1*%
X148093004Y-93391080D02*
X148093004Y-92391080D01*
X148331100Y-92391080D01*
X148473957Y-92438700D01*
X148569195Y-92533938D01*
X148616814Y-92629176D01*
X148664433Y-92819652D01*
X148664433Y-92962509D01*
X148616814Y-93152985D01*
X148569195Y-93248223D01*
X148473957Y-93343461D01*
X148331100Y-93391080D01*
X148093004Y-93391080D01*
X149616814Y-93391080D02*
X149045385Y-93391080D01*
X149331100Y-93391080D02*
X149331100Y-92391080D01*
X149235861Y-92533938D01*
X149140623Y-92629176D01*
X149045385Y-92676795D01*
D16*
%TO.C,Y1*%
X103947636Y-105526105D02*
X103947636Y-105877990D01*
X103701317Y-105139032D02*
X103947636Y-105526105D01*
X104193956Y-105139032D01*
X104827348Y-105877990D02*
X104405087Y-105877990D01*
X104616217Y-105877990D02*
X104616217Y-105139032D01*
X104545840Y-105244597D01*
X104475464Y-105314974D01*
X104405087Y-105350163D01*
D14*
%TO.C,U2*%
X130749095Y-107006980D02*
X130749095Y-107816504D01*
X130796714Y-107911742D01*
X130844333Y-107959361D01*
X130939571Y-108006980D01*
X131130047Y-108006980D01*
X131225285Y-107959361D01*
X131272904Y-107911742D01*
X131320523Y-107816504D01*
X131320523Y-107006980D01*
X131749095Y-107102219D02*
X131796714Y-107054600D01*
X131891952Y-107006980D01*
X132130047Y-107006980D01*
X132225285Y-107054600D01*
X132272904Y-107102219D01*
X132320523Y-107197457D01*
X132320523Y-107292695D01*
X132272904Y-107435552D01*
X131701476Y-108006980D01*
X132320523Y-108006980D01*
D15*
%TO.C,U4*%
X124568299Y-120216941D02*
X124924382Y-120216941D01*
X124497082Y-120430591D02*
X124746341Y-119682815D01*
X124995599Y-120430591D01*
X125672158Y-120430591D02*
X125422900Y-120074507D01*
X125244858Y-120430591D02*
X125244858Y-119682815D01*
X125529725Y-119682815D01*
X125600942Y-119718424D01*
X125636550Y-119754032D01*
X125672158Y-119825249D01*
X125672158Y-119932074D01*
X125636550Y-120003291D01*
X125600942Y-120038899D01*
X125529725Y-120074507D01*
X125244858Y-120074507D01*
X125992634Y-120430591D02*
X125992634Y-119682815D01*
X126170676Y-119682815D01*
X126277501Y-119718424D01*
X126348718Y-119789640D01*
X126384326Y-119860857D01*
X126419934Y-120003291D01*
X126419934Y-120110116D01*
X126384326Y-120252549D01*
X126348718Y-120323766D01*
X126277501Y-120394983D01*
X126170676Y-120430591D01*
X125992634Y-120430591D01*
X126740410Y-119682815D02*
X126740410Y-120288158D01*
X126776018Y-120359374D01*
X126811627Y-120394983D01*
X126882843Y-120430591D01*
X127025277Y-120430591D01*
X127096494Y-120394983D01*
X127132102Y-120359374D01*
X127167710Y-120288158D01*
X127167710Y-119682815D01*
X127523794Y-120430591D02*
X127523794Y-119682815D01*
X127879878Y-120430591D02*
X127879878Y-119682815D01*
X128307179Y-120430591D01*
X128307179Y-119682815D01*
X128805696Y-119682815D02*
X128948129Y-119682815D01*
X129019346Y-119718424D01*
X129090563Y-119789640D01*
X129126171Y-119932074D01*
X129126171Y-120181332D01*
X129090563Y-120323766D01*
X129019346Y-120394983D01*
X128948129Y-120430591D01*
X128805696Y-120430591D01*
X128734479Y-120394983D01*
X128663262Y-120323766D01*
X128627654Y-120181332D01*
X128627654Y-119932074D01*
X128663262Y-119789640D01*
X128734479Y-119718424D01*
X128805696Y-119682815D01*
X130016381Y-120430591D02*
X130016381Y-119682815D01*
X130301248Y-119682815D01*
X130372465Y-119718424D01*
X130408073Y-119754032D01*
X130443681Y-119825249D01*
X130443681Y-119932074D01*
X130408073Y-120003291D01*
X130372465Y-120038899D01*
X130301248Y-120074507D01*
X130016381Y-120074507D01*
X131191457Y-120430591D02*
X130942199Y-120074507D01*
X130764157Y-120430591D02*
X130764157Y-119682815D01*
X131049024Y-119682815D01*
X131120241Y-119718424D01*
X131155849Y-119754032D01*
X131191457Y-119825249D01*
X131191457Y-119932074D01*
X131155849Y-120003291D01*
X131120241Y-120038899D01*
X131049024Y-120074507D01*
X130764157Y-120074507D01*
X131654366Y-119682815D02*
X131796800Y-119682815D01*
X131868017Y-119718424D01*
X131939233Y-119789640D01*
X131974842Y-119932074D01*
X131974842Y-120181332D01*
X131939233Y-120323766D01*
X131868017Y-120394983D01*
X131796800Y-120430591D01*
X131654366Y-120430591D01*
X131583150Y-120394983D01*
X131511933Y-120323766D01*
X131476325Y-120181332D01*
X131476325Y-119932074D01*
X131511933Y-119789640D01*
X131583150Y-119718424D01*
X131654366Y-119682815D01*
X132865051Y-120430591D02*
X132865051Y-119682815D01*
X133114310Y-120216941D01*
X133363569Y-119682815D01*
X133363569Y-120430591D01*
X133719653Y-120430591D02*
X133719653Y-119682815D01*
X134503037Y-120359374D02*
X134467429Y-120394983D01*
X134360603Y-120430591D01*
X134289387Y-120430591D01*
X134182561Y-120394983D01*
X134111345Y-120323766D01*
X134075736Y-120252549D01*
X134040128Y-120110116D01*
X134040128Y-120003291D01*
X134075736Y-119860857D01*
X134111345Y-119789640D01*
X134182561Y-119718424D01*
X134289387Y-119682815D01*
X134360603Y-119682815D01*
X134467429Y-119718424D01*
X134503037Y-119754032D01*
X135250813Y-120430591D02*
X135001554Y-120074507D01*
X134823512Y-120430591D02*
X134823512Y-119682815D01*
X135108379Y-119682815D01*
X135179596Y-119718424D01*
X135215205Y-119754032D01*
X135250813Y-119825249D01*
X135250813Y-119932074D01*
X135215205Y-120003291D01*
X135179596Y-120038899D01*
X135108379Y-120074507D01*
X134823512Y-120074507D01*
X135713722Y-119682815D02*
X135856155Y-119682815D01*
X135927372Y-119718424D01*
X135998589Y-119789640D01*
X136034197Y-119932074D01*
X136034197Y-120181332D01*
X135998589Y-120323766D01*
X135927372Y-120394983D01*
X135856155Y-120430591D01*
X135713722Y-120430591D01*
X135642505Y-120394983D01*
X135571288Y-120323766D01*
X135535680Y-120181332D01*
X135535680Y-119932074D01*
X135571288Y-119789640D01*
X135642505Y-119718424D01*
X135713722Y-119682815D01*
X137280491Y-119682815D02*
X136924407Y-119682815D01*
X136888798Y-120038899D01*
X136924407Y-120003291D01*
X136995624Y-119967682D01*
X137173665Y-119967682D01*
X137244882Y-120003291D01*
X137280491Y-120038899D01*
X137316099Y-120110116D01*
X137316099Y-120288158D01*
X137280491Y-120359374D01*
X137244882Y-120394983D01*
X137173665Y-120430591D01*
X136995624Y-120430591D01*
X136924407Y-120394983D01*
X136888798Y-120359374D01*
X137529749Y-119682815D02*
X137779008Y-120430591D01*
X138028267Y-119682815D01*
D14*
%TO.C,C1*%
X116914433Y-93743342D02*
X116866814Y-93790961D01*
X116723957Y-93838580D01*
X116628719Y-93838580D01*
X116485861Y-93790961D01*
X116390623Y-93695723D01*
X116343004Y-93600485D01*
X116295385Y-93410009D01*
X116295385Y-93267152D01*
X116343004Y-93076676D01*
X116390623Y-92981438D01*
X116485861Y-92886200D01*
X116628719Y-92838580D01*
X116723957Y-92838580D01*
X116866814Y-92886200D01*
X116914433Y-92933819D01*
X117866814Y-93838580D02*
X117295385Y-93838580D01*
X117581100Y-93838580D02*
X117581100Y-92838580D01*
X117485861Y-92981438D01*
X117390623Y-93076676D01*
X117295385Y-93124295D01*
%TO.C,R2*%
X109023480Y-107297866D02*
X108547290Y-107631200D01*
X109023480Y-107869295D02*
X108023480Y-107869295D01*
X108023480Y-107488342D01*
X108071100Y-107393104D01*
X108118719Y-107345485D01*
X108213957Y-107297866D01*
X108356814Y-107297866D01*
X108452052Y-107345485D01*
X108499671Y-107393104D01*
X108547290Y-107488342D01*
X108547290Y-107869295D01*
X108118719Y-106916914D02*
X108071100Y-106869295D01*
X108023480Y-106774057D01*
X108023480Y-106535961D01*
X108071100Y-106440723D01*
X108118719Y-106393104D01*
X108213957Y-106345485D01*
X108309195Y-106345485D01*
X108452052Y-106393104D01*
X109023480Y-106964533D01*
X109023480Y-106345485D01*
D17*
%TO.C,C6*%
X119976100Y-102013700D02*
X119976100Y-103213700D01*
X115456100Y-105469263D02*
X115456100Y-105333700D01*
X114966100Y-102463700D02*
X114966100Y-102963700D01*
X116520537Y-102013700D02*
X119976100Y-102013700D01*
X114716100Y-102713700D02*
X115216100Y-102713700D01*
X115456100Y-103078137D02*
X115456100Y-103213700D01*
X115456100Y-103078137D02*
X116520537Y-102013700D01*
X116520537Y-106533700D02*
X119976100Y-106533700D01*
X115456100Y-105469263D02*
X116520537Y-106533700D01*
X119976100Y-106533700D02*
X119976100Y-105333700D01*
D11*
%TO.C,U1*%
X114501100Y-97011200D02*
X109501100Y-97011200D01*
X109501100Y-102011200D02*
X114501100Y-102011200D01*
X109501100Y-97011200D02*
X109501100Y-102011200D01*
X114501100Y-102011200D02*
X114501100Y-97011200D01*
X111001100Y-101011200D02*
G75*
G03*
X111001100Y-101011200I-500000J0D01*
G01*
D17*
%TO.C,R3*%
X132094036Y-105326200D02*
X132548164Y-105326200D01*
X132094036Y-103856200D02*
X132548164Y-103856200D01*
%TO.C,D2*%
X170131100Y-91938700D02*
X166231100Y-91938700D01*
X170131100Y-89938700D02*
X166231100Y-89938700D01*
X170131100Y-91938700D02*
X170131100Y-89938700D01*
D11*
%TO.C,U7*%
X177406100Y-88081200D02*
X177406100Y-121101200D01*
X182486100Y-86811200D02*
X190106100Y-86811200D01*
X190106100Y-86811200D02*
X190106100Y-91891200D01*
X190106100Y-91891200D02*
X182486100Y-91891200D01*
X182486100Y-91891200D02*
X182486100Y-86811200D01*
X177406100Y-121101200D02*
X195186100Y-121101200D01*
X195186100Y-88081200D02*
X177406100Y-88081200D01*
X195186100Y-121101200D02*
X195186100Y-88081200D01*
D17*
%TO.C,C2*%
X106703600Y-102629952D02*
X106703600Y-102107448D01*
X105233600Y-102629952D02*
X105233600Y-102107448D01*
%TO.C,J1*%
X103539000Y-110296600D02*
X103539000Y-111586600D01*
X100459000Y-125286600D02*
X100459000Y-125806600D01*
X101229000Y-111586600D02*
X101229000Y-113656600D01*
X105219000Y-111596600D02*
X106039000Y-111596600D01*
X115319000Y-125806600D02*
X115319000Y-125286600D01*
X114549000Y-117176600D02*
X114549000Y-125286600D01*
X109739000Y-111596600D02*
X110559000Y-111596600D01*
X101229000Y-125286600D02*
X101229000Y-117176600D01*
X101229000Y-111586600D02*
X103539000Y-111586600D01*
X100459000Y-125806600D02*
X115319000Y-125806600D01*
X112239000Y-111586600D02*
X114549000Y-111586600D01*
X114549000Y-111586600D02*
X114549000Y-113656600D01*
X101229000Y-125286600D02*
X100459000Y-125286600D01*
X115319000Y-125286600D02*
X114549000Y-125286600D01*
X107719000Y-111596600D02*
X108059000Y-111596600D01*
%TO.C,C5*%
X107182352Y-95801200D02*
X106659848Y-95801200D01*
X107182352Y-94331200D02*
X106659848Y-94331200D01*
%TO.C,R4*%
X132094036Y-102786200D02*
X132548164Y-102786200D01*
X132094036Y-101316200D02*
X132548164Y-101316200D01*
%TO.C,U3*%
X120675000Y-110496600D02*
X120675000Y-107571600D01*
X117455000Y-110496600D02*
X117455000Y-108996600D01*
X120675000Y-110496600D02*
X120675000Y-111996600D01*
X117455000Y-110496600D02*
X117455000Y-111996600D01*
%TO.C,D3*%
X188546100Y-89938700D02*
X184646100Y-89938700D01*
X188546100Y-91938700D02*
X184646100Y-91938700D01*
X188546100Y-91938700D02*
X188546100Y-89938700D01*
%TO.C,C3*%
X106703600Y-97979948D02*
X106703600Y-98502452D01*
X105233600Y-97979948D02*
X105233600Y-98502452D01*
%TO.C,C8*%
X116863600Y-108774948D02*
X116863600Y-109297452D01*
X115393600Y-108774948D02*
X115393600Y-109297452D01*
%TO.C,C7*%
X114641100Y-108774948D02*
X114641100Y-109297452D01*
X113171100Y-108774948D02*
X113171100Y-109297452D01*
%TO.C,C4*%
X110631100Y-106869948D02*
X110631100Y-107392452D01*
X112101100Y-106869948D02*
X112101100Y-107392452D01*
D18*
%TO.C,SW1*%
X107211100Y-93506200D02*
X107211100Y-89006200D01*
X111711100Y-93506200D02*
X107211100Y-93506200D01*
X107211100Y-89006200D02*
X111711100Y-89006200D01*
X111711100Y-89006200D02*
X111711100Y-93506200D01*
X110711100Y-91256200D02*
G75*
G03*
X110711100Y-91256200I-1250000J0D01*
G01*
D11*
%TO.C,U5*%
X145021100Y-86811200D02*
X152641100Y-86811200D01*
X139941100Y-88081200D02*
X139941100Y-121101200D01*
X152641100Y-91891200D02*
X145021100Y-91891200D01*
X157721100Y-88081200D02*
X139941100Y-88081200D01*
X145021100Y-91891200D02*
X145021100Y-86811200D01*
X152641100Y-86811200D02*
X152641100Y-91891200D01*
X157721100Y-121101200D02*
X157721100Y-88081200D01*
X139941100Y-121101200D02*
X157721100Y-121101200D01*
D17*
%TO.C,R1*%
X108408600Y-106904136D02*
X108408600Y-107358264D01*
X109878600Y-106904136D02*
X109878600Y-107358264D01*
D11*
%TO.C,U6*%
X158673600Y-121101200D02*
X176453600Y-121101200D01*
X163753600Y-91891200D02*
X163753600Y-86811200D01*
X176453600Y-88081200D02*
X158673600Y-88081200D01*
X171373600Y-86811200D02*
X171373600Y-91891200D01*
X163753600Y-86811200D02*
X171373600Y-86811200D01*
X158673600Y-88081200D02*
X158673600Y-121101200D01*
X171373600Y-91891200D02*
X163753600Y-91891200D01*
X176453600Y-121101200D02*
X176453600Y-88081200D01*
D17*
%TO.C,D1*%
X151081100Y-91938700D02*
X151081100Y-89938700D01*
X151081100Y-89938700D02*
X147181100Y-89938700D01*
X151081100Y-91938700D02*
X147181100Y-91938700D01*
D18*
%TO.C,Y1*%
X99758600Y-105211200D02*
X99758600Y-93811200D01*
X104558600Y-105211200D02*
X103412600Y-105211200D01*
X104558600Y-93811200D02*
X104558600Y-105211200D01*
X100904600Y-105211200D02*
X99758600Y-105211200D01*
X103412600Y-93811200D02*
X104558600Y-93811200D01*
X99758600Y-93811200D02*
X100904600Y-93811200D01*
D17*
%TO.C,U2*%
X131511000Y-108269600D02*
X133711000Y-108269600D01*
X131511000Y-108269600D02*
X127911000Y-108269600D01*
X131511000Y-113739600D02*
X133711000Y-113739600D01*
X131511000Y-113739600D02*
X129311000Y-113739600D01*
D11*
%TO.C,U4*%
X121208600Y-88081200D02*
X121208600Y-121101200D01*
X133908600Y-86811200D02*
X133908600Y-91891200D01*
X121208600Y-121101200D02*
X138988600Y-121101200D01*
X133908600Y-91891200D02*
X126288600Y-91891200D01*
X126288600Y-86811200D02*
X133908600Y-86811200D01*
X138988600Y-121101200D02*
X138988600Y-88081200D01*
X138988600Y-88081200D02*
X121208600Y-88081200D01*
X126288600Y-91891200D02*
X126288600Y-86811200D01*
D17*
%TO.C,C1*%
X116819848Y-94331200D02*
X117342352Y-94331200D01*
X116819848Y-95801200D02*
X117342352Y-95801200D01*
%TO.C,R2*%
X106186100Y-106904136D02*
X106186100Y-107358264D01*
X107656100Y-106904136D02*
X107656100Y-107358264D01*
%TD*%
%LPC*%
D19*
%TO.C,C6*%
X115916100Y-104273700D03*
X119516100Y-104273700D03*
%TD*%
D20*
%TO.C,U1*%
X110251100Y-103011200D03*
X110751100Y-103011200D03*
X111251100Y-103011200D03*
X111751100Y-103011200D03*
X112251100Y-103011200D03*
X112751100Y-103011200D03*
X113251100Y-103011200D03*
X113751100Y-103011200D03*
D21*
X115501100Y-101261200D03*
X115501100Y-100761200D03*
X115501100Y-100261200D03*
X115501100Y-99761200D03*
X115501100Y-99261200D03*
X115501100Y-98761200D03*
X115501100Y-98261200D03*
X115501100Y-97761200D03*
D20*
X113751100Y-96011200D03*
X113251100Y-96011200D03*
X112751100Y-96011200D03*
X112251100Y-96011200D03*
X111751100Y-96011200D03*
X111251100Y-96011200D03*
X110751100Y-96011200D03*
X110251100Y-96011200D03*
D21*
X108501100Y-97761200D03*
X108501100Y-98261200D03*
X108501100Y-98761200D03*
X108501100Y-99261200D03*
X108501100Y-99761200D03*
X108501100Y-100261200D03*
X108501100Y-100761200D03*
X108501100Y-101261200D03*
%TD*%
D22*
%TO.C,R3*%
X131408600Y-104591200D03*
X133233600Y-104591200D03*
%TD*%
D23*
%TO.C,D2*%
X169531100Y-90938700D03*
X166231100Y-90938700D03*
%TD*%
D24*
%TO.C,U7*%
X193916100Y-91891200D03*
X193916100Y-94431200D03*
X193916100Y-96971200D03*
X193916100Y-99511200D03*
X193916100Y-102051200D03*
X193916100Y-104591200D03*
X193916100Y-107131200D03*
X193916100Y-109671200D03*
X193916100Y-112211200D03*
X193916100Y-114751200D03*
X193916100Y-117291200D03*
X193916100Y-119831200D03*
X178676100Y-119831200D03*
X178676100Y-117291200D03*
X178676100Y-114751200D03*
X178676100Y-112211200D03*
X178676100Y-109671200D03*
X178676100Y-107131200D03*
X178676100Y-104591200D03*
X178676100Y-102051200D03*
X178676100Y-99511200D03*
X178676100Y-96971200D03*
X178676100Y-94431200D03*
X178676100Y-91891200D03*
%TD*%
D25*
%TO.C,C2*%
X105968600Y-103318700D03*
X105968600Y-101418700D03*
%TD*%
D26*
%TO.C,J1*%
X104389000Y-111736600D03*
X106889000Y-111736600D03*
X108889000Y-111736600D03*
X111389000Y-111736600D03*
D27*
X114459000Y-115416600D03*
X101319000Y-115416600D03*
%TD*%
D28*
%TO.C,C5*%
X107871100Y-95066200D03*
X105971100Y-95066200D03*
%TD*%
D22*
%TO.C,R4*%
X131408600Y-102051200D03*
X133233600Y-102051200D03*
%TD*%
D29*
%TO.C,U3*%
X120040000Y-108384100D03*
X119390000Y-108384100D03*
X118740000Y-108384100D03*
X118090000Y-108384100D03*
X118090000Y-112609100D03*
X118740000Y-112609100D03*
X119390000Y-112609100D03*
X120040000Y-112609100D03*
%TD*%
D23*
%TO.C,D3*%
X187946100Y-90938700D03*
X184646100Y-90938700D03*
%TD*%
D30*
%TO.C,C3*%
X105968600Y-97291200D03*
X105968600Y-99191200D03*
%TD*%
%TO.C,C8*%
X116128600Y-108086200D03*
X116128600Y-109986200D03*
%TD*%
%TO.C,C7*%
X113906100Y-108086200D03*
X113906100Y-109986200D03*
%TD*%
%TO.C,C4*%
X111366100Y-106181200D03*
X111366100Y-108081200D03*
%TD*%
D31*
%TO.C,SW1*%
X105861100Y-92956200D03*
X113061100Y-92956200D03*
X105861100Y-89556200D03*
D32*
X113061100Y-89556200D03*
%TD*%
D24*
%TO.C,U5*%
X156451100Y-91891200D03*
X156451100Y-94431200D03*
X156451100Y-96971200D03*
X156451100Y-99511200D03*
X156451100Y-102051200D03*
X156451100Y-104591200D03*
X156451100Y-107131200D03*
X156451100Y-109671200D03*
X156451100Y-112211200D03*
X156451100Y-114751200D03*
X156451100Y-117291200D03*
X156451100Y-119831200D03*
X141211100Y-119831200D03*
X141211100Y-117291200D03*
X141211100Y-114751200D03*
X141211100Y-112211200D03*
X141211100Y-109671200D03*
X141211100Y-107131200D03*
X141211100Y-104591200D03*
X141211100Y-102051200D03*
X141211100Y-99511200D03*
X141211100Y-96971200D03*
X141211100Y-94431200D03*
X141211100Y-91891200D03*
%TD*%
D33*
%TO.C,R1*%
X109143600Y-106218700D03*
X109143600Y-108043700D03*
%TD*%
D24*
%TO.C,U6*%
X175183600Y-91891200D03*
X175183600Y-94431200D03*
X175183600Y-96971200D03*
X175183600Y-99511200D03*
X175183600Y-102051200D03*
X175183600Y-104591200D03*
X175183600Y-107131200D03*
X175183600Y-109671200D03*
X175183600Y-112211200D03*
X175183600Y-114751200D03*
X175183600Y-117291200D03*
X175183600Y-119831200D03*
X159943600Y-119831200D03*
X159943600Y-117291200D03*
X159943600Y-114751200D03*
X159943600Y-112211200D03*
X159943600Y-109671200D03*
X159943600Y-107131200D03*
X159943600Y-104591200D03*
X159943600Y-102051200D03*
X159943600Y-99511200D03*
X159943600Y-96971200D03*
X159943600Y-94431200D03*
X159943600Y-91891200D03*
%TD*%
D23*
%TO.C,D1*%
X150481100Y-90938700D03*
X147181100Y-90938700D03*
%TD*%
D34*
%TO.C,Y1*%
X102158600Y-104261200D03*
X102158600Y-94761200D03*
%TD*%
D35*
%TO.C,U2*%
X128648500Y-108729600D03*
X128648500Y-109379600D03*
X128648500Y-110029600D03*
X128648500Y-110679600D03*
X128648500Y-111329600D03*
X128648500Y-111979600D03*
X128648500Y-112629600D03*
X128648500Y-113279600D03*
X134373500Y-113279600D03*
X134373500Y-112629600D03*
X134373500Y-111979600D03*
X134373500Y-111329600D03*
X134373500Y-110679600D03*
X134373500Y-110029600D03*
X134373500Y-109379600D03*
X134373500Y-108729600D03*
%TD*%
D24*
%TO.C,U4*%
X137718600Y-91891200D03*
X137718600Y-94431200D03*
X137718600Y-96971200D03*
X137718600Y-99511200D03*
X137718600Y-102051200D03*
X137718600Y-104591200D03*
X137718600Y-107131200D03*
X137718600Y-109671200D03*
X137718600Y-112211200D03*
X137718600Y-114751200D03*
X137718600Y-117291200D03*
X137718600Y-119831200D03*
X122478600Y-119831200D03*
X122478600Y-117291200D03*
X122478600Y-114751200D03*
X122478600Y-112211200D03*
X122478600Y-109671200D03*
X122478600Y-107131200D03*
X122478600Y-104591200D03*
X122478600Y-102051200D03*
X122478600Y-99511200D03*
X122478600Y-96971200D03*
X122478600Y-94431200D03*
X122478600Y-91891200D03*
%TD*%
D36*
%TO.C,C1*%
X116131100Y-95066200D03*
X118031100Y-95066200D03*
%TD*%
D33*
%TO.C,R2*%
X106921100Y-106218700D03*
X106921100Y-108043700D03*
%TD*%
D37*
X118303000Y-105797600D03*
X127241100Y-108718700D03*
X111366100Y-110623700D03*
X119938600Y-104273700D03*
X112928226Y-97569135D03*
X126812000Y-113290600D03*
X116128600Y-111258700D03*
X113906100Y-111258700D03*
X119303600Y-95066200D03*
X104381100Y-99193700D03*
X109461100Y-89986200D03*
X118986100Y-104273700D03*
X118049000Y-114179600D03*
X104381100Y-101416200D03*
X104698600Y-94748700D03*
X111366100Y-112528700D03*
X111366100Y-109353700D03*
X111366100Y-101416200D03*
X111366100Y-111576200D03*
X111683600Y-99511200D03*
X109143600Y-105543700D03*
X112335300Y-98241200D03*
X106921100Y-105543700D03*
X130098600Y-104591200D03*
X130098600Y-102051200D03*
X119303600Y-93161200D03*
X119155906Y-99658894D03*
X126288600Y-103321200D03*
X118668600Y-98345400D03*
X113588600Y-98876200D03*
X127066000Y-109988600D03*
X126812000Y-111258600D03*
D38*
X130114000Y-112655600D03*
X135956000Y-115576600D03*
M02*
