%TF.GenerationSoftware,KiCad,Pcbnew,(6.0.7)*%
%TF.CreationDate,2022-08-19T11:16:44-06:00*%
%TF.ProjectId,ogx360,6f677833-3630-42e6-9b69-6361645f7063,rev?*%
%TF.SameCoordinates,Original*%
%TF.FileFunction,Soldermask,Top*%
%TF.FilePolarity,Negative*%
%FSLAX46Y46*%
G04 Gerber Fmt 4.6, Leading zero omitted, Abs format (unit mm)*
G04 Created by KiCad (PCBNEW (6.0.7)) date 2022-08-19 11:16:44*
%MOMM*%
%LPD*%
G01*
G04 APERTURE LIST*
G04 Aperture macros list*
%AMRoundRect*
0 Rectangle with rounded corners*
0 $1 Rounding radius*
0 $2 $3 $4 $5 $6 $7 $8 $9 X,Y pos of 4 corners*
0 Add a 4 corners polygon primitive as box body*
4,1,4,$2,$3,$4,$5,$6,$7,$8,$9,$2,$3,0*
0 Add four circle primitives for the rounded corners*
1,1,$1+$1,$2,$3*
1,1,$1+$1,$4,$5*
1,1,$1+$1,$6,$7*
1,1,$1+$1,$8,$9*
0 Add four rect primitives between the rounded corners*
20,1,$1+$1,$2,$3,$4,$5,0*
20,1,$1+$1,$4,$5,$6,$7,0*
20,1,$1+$1,$6,$7,$8,$9,0*
20,1,$1+$1,$8,$9,$2,$3,0*%
G04 Aperture macros list end*
%ADD10RoundRect,0.250000X-1.050000X-0.550000X1.050000X-0.550000X1.050000X0.550000X-1.050000X0.550000X0*%
%ADD11R,0.254000X1.143000*%
%ADD12R,1.143000X0.254000*%
%ADD13RoundRect,0.250000X-0.262500X-0.450000X0.262500X-0.450000X0.262500X0.450000X-0.262500X0.450000X0*%
%ADD14R,0.900000X1.200000*%
%ADD15C,1.981600*%
%ADD16RoundRect,0.250000X0.475000X-0.250000X0.475000X0.250000X-0.475000X0.250000X-0.475000X-0.250000X0*%
%ADD17R,1.250000X3.000000*%
%ADD18C,3.000000*%
%ADD19RoundRect,0.250000X0.250000X0.475000X-0.250000X0.475000X-0.250000X-0.475000X0.250000X-0.475000X0*%
%ADD20RoundRect,0.100000X-0.100000X0.712500X-0.100000X-0.712500X0.100000X-0.712500X0.100000X0.712500X0*%
%ADD21RoundRect,0.250000X-0.475000X0.250000X-0.475000X-0.250000X0.475000X-0.250000X0.475000X0.250000X0*%
%ADD22RoundRect,0.050800X-0.889000X-0.889000X0.889000X-0.889000X0.889000X0.889000X-0.889000X0.889000X0*%
%ADD23RoundRect,0.050800X-0.889000X-0.889500X0.889000X-0.889500X0.889000X0.889500X-0.889000X0.889500X0*%
%ADD24RoundRect,0.250000X-0.450000X0.262500X-0.450000X-0.262500X0.450000X-0.262500X0.450000X0.262500X0*%
%ADD25RoundRect,0.050800X1.000000X-2.750000X1.000000X2.750000X-1.000000X2.750000X-1.000000X-2.750000X0*%
%ADD26RoundRect,0.100000X-0.637500X-0.100000X0.637500X-0.100000X0.637500X0.100000X-0.637500X0.100000X0*%
%ADD27RoundRect,0.250000X-0.250000X-0.475000X0.250000X-0.475000X0.250000X0.475000X-0.250000X0.475000X0*%
%ADD28C,0.609600*%
%ADD29C,0.800000*%
G04 APERTURE END LIST*
D10*
%TO.C,C6*%
X115916100Y-104273700D03*
X119516100Y-104273700D03*
%TD*%
D11*
%TO.C,U1*%
X110251100Y-103011200D03*
X110751100Y-103011200D03*
X111251100Y-103011200D03*
X111751100Y-103011200D03*
X112251100Y-103011200D03*
X112751100Y-103011200D03*
X113251100Y-103011200D03*
X113751100Y-103011200D03*
D12*
X115501100Y-101261200D03*
X115501100Y-100761200D03*
X115501100Y-100261200D03*
X115501100Y-99761200D03*
X115501100Y-99261200D03*
X115501100Y-98761200D03*
X115501100Y-98261200D03*
X115501100Y-97761200D03*
D11*
X113751100Y-96011200D03*
X113251100Y-96011200D03*
X112751100Y-96011200D03*
X112251100Y-96011200D03*
X111751100Y-96011200D03*
X111251100Y-96011200D03*
X110751100Y-96011200D03*
X110251100Y-96011200D03*
D12*
X108501100Y-97761200D03*
X108501100Y-98261200D03*
X108501100Y-98761200D03*
X108501100Y-99261200D03*
X108501100Y-99761200D03*
X108501100Y-100261200D03*
X108501100Y-100761200D03*
X108501100Y-101261200D03*
%TD*%
D13*
%TO.C,R3*%
X131408600Y-104591200D03*
X133233600Y-104591200D03*
%TD*%
D14*
%TO.C,D2*%
X169531100Y-90938700D03*
X166231100Y-90938700D03*
%TD*%
D15*
%TO.C,U7*%
X193916100Y-91891200D03*
X193916100Y-94431200D03*
X193916100Y-96971200D03*
X193916100Y-99511200D03*
X193916100Y-102051200D03*
X193916100Y-104591200D03*
X193916100Y-107131200D03*
X193916100Y-109671200D03*
X193916100Y-112211200D03*
X193916100Y-114751200D03*
X193916100Y-117291200D03*
X193916100Y-119831200D03*
X178676100Y-119831200D03*
X178676100Y-117291200D03*
X178676100Y-114751200D03*
X178676100Y-112211200D03*
X178676100Y-109671200D03*
X178676100Y-107131200D03*
X178676100Y-104591200D03*
X178676100Y-102051200D03*
X178676100Y-99511200D03*
X178676100Y-96971200D03*
X178676100Y-94431200D03*
X178676100Y-91891200D03*
%TD*%
D16*
%TO.C,C2*%
X105968600Y-103318700D03*
X105968600Y-101418700D03*
%TD*%
D17*
%TO.C,J1*%
X104389000Y-111736600D03*
X106889000Y-111736600D03*
X108889000Y-111736600D03*
X111389000Y-111736600D03*
D18*
X114459000Y-115416600D03*
X101319000Y-115416600D03*
%TD*%
D19*
%TO.C,C5*%
X107871100Y-95066200D03*
X105971100Y-95066200D03*
%TD*%
D13*
%TO.C,R4*%
X131408600Y-102051200D03*
X133233600Y-102051200D03*
%TD*%
D20*
%TO.C,U3*%
X120040000Y-108384100D03*
X119390000Y-108384100D03*
X118740000Y-108384100D03*
X118090000Y-108384100D03*
X118090000Y-112609100D03*
X118740000Y-112609100D03*
X119390000Y-112609100D03*
X120040000Y-112609100D03*
%TD*%
D14*
%TO.C,D3*%
X187946100Y-90938700D03*
X184646100Y-90938700D03*
%TD*%
D21*
%TO.C,C3*%
X105968600Y-97291200D03*
X105968600Y-99191200D03*
%TD*%
%TO.C,C8*%
X116128600Y-108086200D03*
X116128600Y-109986200D03*
%TD*%
%TO.C,C7*%
X113906100Y-108086200D03*
X113906100Y-109986200D03*
%TD*%
%TO.C,C4*%
X111366100Y-106181200D03*
X111366100Y-108081200D03*
%TD*%
D22*
%TO.C,SW1*%
X105861100Y-92956200D03*
X113061100Y-92956200D03*
X105861100Y-89556200D03*
D23*
X113061100Y-89556200D03*
%TD*%
D15*
%TO.C,U5*%
X156451100Y-91891200D03*
X156451100Y-94431200D03*
X156451100Y-96971200D03*
X156451100Y-99511200D03*
X156451100Y-102051200D03*
X156451100Y-104591200D03*
X156451100Y-107131200D03*
X156451100Y-109671200D03*
X156451100Y-112211200D03*
X156451100Y-114751200D03*
X156451100Y-117291200D03*
X156451100Y-119831200D03*
X141211100Y-119831200D03*
X141211100Y-117291200D03*
X141211100Y-114751200D03*
X141211100Y-112211200D03*
X141211100Y-109671200D03*
X141211100Y-107131200D03*
X141211100Y-104591200D03*
X141211100Y-102051200D03*
X141211100Y-99511200D03*
X141211100Y-96971200D03*
X141211100Y-94431200D03*
X141211100Y-91891200D03*
%TD*%
D24*
%TO.C,R1*%
X109143600Y-106218700D03*
X109143600Y-108043700D03*
%TD*%
D15*
%TO.C,U6*%
X175183600Y-91891200D03*
X175183600Y-94431200D03*
X175183600Y-96971200D03*
X175183600Y-99511200D03*
X175183600Y-102051200D03*
X175183600Y-104591200D03*
X175183600Y-107131200D03*
X175183600Y-109671200D03*
X175183600Y-112211200D03*
X175183600Y-114751200D03*
X175183600Y-117291200D03*
X175183600Y-119831200D03*
X159943600Y-119831200D03*
X159943600Y-117291200D03*
X159943600Y-114751200D03*
X159943600Y-112211200D03*
X159943600Y-109671200D03*
X159943600Y-107131200D03*
X159943600Y-104591200D03*
X159943600Y-102051200D03*
X159943600Y-99511200D03*
X159943600Y-96971200D03*
X159943600Y-94431200D03*
X159943600Y-91891200D03*
%TD*%
D14*
%TO.C,D1*%
X150481100Y-90938700D03*
X147181100Y-90938700D03*
%TD*%
D25*
%TO.C,Y1*%
X102158600Y-104261200D03*
X102158600Y-94761200D03*
%TD*%
D26*
%TO.C,U2*%
X128648500Y-108729600D03*
X128648500Y-109379600D03*
X128648500Y-110029600D03*
X128648500Y-110679600D03*
X128648500Y-111329600D03*
X128648500Y-111979600D03*
X128648500Y-112629600D03*
X128648500Y-113279600D03*
X134373500Y-113279600D03*
X134373500Y-112629600D03*
X134373500Y-111979600D03*
X134373500Y-111329600D03*
X134373500Y-110679600D03*
X134373500Y-110029600D03*
X134373500Y-109379600D03*
X134373500Y-108729600D03*
%TD*%
D15*
%TO.C,U4*%
X137718600Y-91891200D03*
X137718600Y-94431200D03*
X137718600Y-96971200D03*
X137718600Y-99511200D03*
X137718600Y-102051200D03*
X137718600Y-104591200D03*
X137718600Y-107131200D03*
X137718600Y-109671200D03*
X137718600Y-112211200D03*
X137718600Y-114751200D03*
X137718600Y-117291200D03*
X137718600Y-119831200D03*
X122478600Y-119831200D03*
X122478600Y-117291200D03*
X122478600Y-114751200D03*
X122478600Y-112211200D03*
X122478600Y-109671200D03*
X122478600Y-107131200D03*
X122478600Y-104591200D03*
X122478600Y-102051200D03*
X122478600Y-99511200D03*
X122478600Y-96971200D03*
X122478600Y-94431200D03*
X122478600Y-91891200D03*
%TD*%
D27*
%TO.C,C1*%
X116131100Y-95066200D03*
X118031100Y-95066200D03*
%TD*%
D24*
%TO.C,R2*%
X106921100Y-106218700D03*
X106921100Y-108043700D03*
%TD*%
D28*
X118303000Y-105797600D03*
X127241100Y-108718700D03*
X111366100Y-110623700D03*
X119938600Y-104273700D03*
X112928226Y-97569135D03*
X126812000Y-113290600D03*
X116128600Y-111258700D03*
X113906100Y-111258700D03*
X119303600Y-95066200D03*
X104381100Y-99193700D03*
X109461100Y-89986200D03*
X118986100Y-104273700D03*
X118049000Y-114179600D03*
X104381100Y-101416200D03*
X104698600Y-94748700D03*
X111366100Y-112528700D03*
X111366100Y-109353700D03*
X111366100Y-101416200D03*
X111366100Y-111576200D03*
X111683600Y-99511200D03*
X109143600Y-105543700D03*
X112335300Y-98241200D03*
X106921100Y-105543700D03*
X130098600Y-104591200D03*
X130098600Y-102051200D03*
X119303600Y-93161200D03*
X119155906Y-99658894D03*
X126288600Y-103321200D03*
X118668600Y-98345400D03*
X113588600Y-98876200D03*
X127066000Y-109988600D03*
X126812000Y-111258600D03*
D29*
X130114000Y-112655600D03*
X135956000Y-115576600D03*
M02*
